<svg xmlns="http://www.w3.org/2000/svg" viewBox="0 0 484 458">
<path d="M 249 13 L 249 14 L 249 15 L 249 16 L 249 17 L 249 18 L 249 19 L 249 20 L 249 21 L 249 22 L 249 23 L 249 24 L 249 25 L 249 26 L 249 27 L 249 28 L 249 29 L 249 30 L 249 31 L 249 32 L 249 33 L 249 34 L 249 35 L 249 36 L 249 37 L 249 38 L 249 39 L 249 40 L 249 41 L 249 42 L 249 43 L 249 44 L 249 45 L 249 46 L 249 47 L 249 48 L 249 49 L 249 50 L 249 51 L 249 52 L 249 53 L 249 54 L 249 55 L 249 56 L 249 57 L 249 58 L 249 59 L 249 60 L 249 61 L 249 62 L 249 63 L 249 64 L 249 65 L 249 66 L 249 67 L 249 68 L 249 69 L 249 70 L 249 71 L 249 72 L 249 73 L 249 74 L 249 75 L 249 76 L 249 77 L 249 78 L 249 79 L 249 80 L 249 81 L 249 82 L 249 83 L 249 84 L 249 85 L 249 86 L 249 87 L 249 88 L 249 89 L 249 90 L 249 91 L 249 92 L 249 93 L 249 94 L 249 95 L 249 96 L 249 97 L 249 98 L 249 99 L 249 100 L 249 101 L 249 102 L 249 103 L 249 104 L 249 105 L 249 106 L 249 107 L 249 108 L 249 109 L 249 110 L 249 111 L 249 112 L 249 113 L 249 114 L 249 115 L 249 116 L 249 117 L 249 118 L 249 119 L 249 120 L 249 121 L 249 122 L 249 123 L 249 124 L 249 125 L 249 126 L 249 127 L 249 128 L 249 129 L 249 130 L 249 131 L 249 132 L 249 133 L 249 134 L 249 135 L 249 136 L 249 137 L 249 138 L 249 139 L 249 140 L 249 141 L 249 142 L 249 143 L 249 144 L 249 145 L 249 146 L 249 147 L 249 148 L 249 149 L 249 150 L 249 151 L 249 152 L 249 153 L 249 154 L 249 155 L 249 156 L 249 157 L 249 158 L 249 159 L 249 160 L 249 161 L 249 162 L 249 163 L 249 164 L 249 165 L 249 166 L 249 167 L 249 168 L 249 169 L 249 170 L 249 171 L 249 172 L 249 173 L 249 174 L 249 175 L 249 176 L 249 177 L 249 178 L 249 179 L 249 180 L 249 181 L 249 182 L 249 183 L 249 184 L 249 185 L 249 186 L 249 187 L 249 188 L 249 189 L 249 190 L 249 191 L 249 192 L 249 193 L 249 194 L 249 195 L 249 196 L 249 197 L 249 198 L 249 199 L 249 200 L 249 201 L 249 202 L 249 203 L 249 204 L 249 205 L 249 206 L 249 207 L 249 208 L 249 209 L 249 210 L 249 211 L 249 212 L 249 213 L 249 214 L 249 215 L 249 216 L 249 217 L 249 218 L 249 219 L 249 220 L 249 221 L 249 222 L 249 223 L 249 224 L 249 225 L 249 226 L 249 227 L 249 228 L 249 229 L 249 230 L 249 231 L 249 232 L 249 233 L 249 234 L 249 235 L 249 236 L 249 237 L 249 238 L 249 239 L 249 240 L 249 241 L 249 242 L 249 243 L 249 244 L 249 245 L 249 246 L 249 247 L 249 248 L 249 249 L 249 250 L 249 251 L 249 252 L 249 253 L 249 254 L 249 255 L 249 256 L 249 257 L 249 258 L 249 259 L 249 260 L 249 261 L 249 262 L 249 263 L 249 264 L 249 265 L 249 266 L 249 267 L 249 268 L 249 269 L 249 270 L 249 271 L 249 272 L 249 273 L 249 274 L 249 275 L 249 276 L 249 277 L 249 278 L 249 279 L 249 280 L 249 281 L 249 282 L 249 283 L 249 284 L 249 285 L 249 286 L 249 287 L 249 288 L 249 289 L 249 290 L 249 291 L 249 292 L 249 293 L 249 294 L 249 295 L 249 296 L 249 297 L 249 298 L 249 299 L 249 300 L 249 301 L 249 302 L 249 303 L 249 304 L 249 305 L 249 306 L 249 307 L 249 308 L 249 309 L 249 310 L 249 311 L 249 312 L 249 313 L 249 314 L 249 315 L 249 316 L 249 317 L 249 318 L 249 319 L 249 320 L 249 321 L 249 322 L 249 323 L 249 324 L 249 325 L 249 326 L 249 327 L 249 328 L 249 329 L 249 330 L 249 331 L 249 332 L 249 333 L 249 334 L 249 335 L 249 336 L 249 337 L 249 338 L 249 339 L 249 340 L 249 341 L 249 342 L 249 343 L 249 344 L 249 345 L 249 346 L 249 347 L 249 348 L 249 349 L 249 350 L 249 351 L 249 352 L 249 353 L 249 354 L 249 355 L 249 356 L 249 357 L 249 358 L 249 359 L 249 360 L 249 361 L 249 362 L 249 363 L 249 364 L 249 365 L 249 366 L 249 367 L 249 368 L 249 369 L 249 370 L 249 371 L 249 372 L 249 373 L 249 374 L 249 375 L 249 376 L 249 377 L 249 378 L 249 379 L 249 380 L 249 381 L 249 382 L 249 383 L 249 384 L 249 385 L 249 386 L 249 387 L 249 388 L 249 389 L 249 390 L 249 391 L 249 392 L 249 393 L 249 394 L 249 395 L 249 396 L 249 397 L 249 398 L 249 399 L 249 400 L 249 401 L 249 402 L 249 403 L 249 404 L 249 405 L 249 406 L 249 407 L 249 408 L 249 409 L 249 410 L 249 411 L 249 412 L 249 413 L 249 414 L 249 415 L 249 416 L 249 417 L 249 418 L 249 419 L 249 420 L 249 421 L 249 422 L 249 423 L 249 424 L 249 425 L 249 426 L 249 427 L 249 428 L 249 429 L 249 430 L 249 431 L 249 432 L 249 433 L 249 434 L 249 435 L 249 436 L 249 437 L 249 438 L 249 439 L 249 440 L 249 441 L 249 442 L 249 443 L 250 443 L 251 443 L 252 443 L 253 443 L 254 443 L 255 443 L 256 443 L 257 443 L 258 443 L 259 443 L 260 443 L 261 443 L 262 443 L 263 443 L 264 443 L 265 443 L 266 443 L 267 443 L 268 443 L 269 443 L 270 443 L 271 443 L 271 442 L 272 441 L 272 440 L 273 439 L 273 438 L 274 437 L 274 436 L 275 435 L 275 434 L 275 433 L 276 432 L 276 431 L 277 430 L 277 429 L 278 428 L 278 427 L 279 426 L 279 425 L 279 424 L 280 423 L 280 422 L 281 421 L 281 420 L 282 419 L 282 418 L 283 417 L 283 416 L 284 415 L 284 414 L 284 413 L 285 412 L 285 411 L 286 410 L 286 409 L 287 408 L 287 407 L 288 406 L 288 405 L 289 404 L 289 403 L 289 402 L 290 401 L 290 400 L 291 399 L 291 398 L 292 397 L 292 396 L 293 395 L 293 394 L 293 393 L 294 392 L 294 391 L 295 390 L 295 389 L 296 388 L 296 387 L 297 386 L 297 385 L 298 384 L 298 383 L 299 382 L 299 381 L 299 380 L 300 379 L 300 378 L 301 377 L 301 376 L 302 375 L 302 374 L 303 373 L 303 372 L 303 371 L 304 370 L 304 369 L 305 368 L 305 367 L 306 366 L 306 365 L 307 364 L 307 363 L 308 362 L 308 361 L 309 360 L 309 359 L 309 358 L 310 357 L 310 356 L 311 355 L 311 354 L 312 353 L 312 352 L 313 351 L 313 350 L 314 349 L 314 348 L 314 347 L 315 346 L 315 345 L 316 344 L 316 343 L 317 342 L 317 341 L 318 340 L 318 339 L 319 338 L 319 337 L 319 336 L 320 335 L 320 334 L 321 333 L 321 332 L 322 331 L 322 330 L 322 329 L 323 328 L 323 327 L 324 326 L 324 325 L 325 324 L 325 323 L 326 322 L 326 321 L 326 320 L 327 319 L 327 318 L 328 317 L 328 316 L 329 315 L 329 314 L 329 313 L 330 312 L 330 311 L 331 310 L 331 309 L 332 308 L 332 307 L 333 306 L 333 305 L 333 304 L 334 303 L 334 302 L 335 301 L 335 300 L 336 299 L 336 298 L 337 297 L 337 296 L 337 295 L 338 294 L 338 293 L 339 292 L 339 291 L 340 290 L 340 289 L 341 288 L 341 287 L 342 286 L 342 285 L 342 284 L 343 283 L 343 282 L 344 281 L 344 280 L 345 279 L 345 278 L 346 277 L 346 276 L 346 275 L 347 274 L 347 273 L 348 272 L 348 271 L 349 270 L 349 269 L 350 268 L 350 267 L 351 266 L 351 265 L 352 264 L 352 263 L 352 262 L 353 261 L 353 260 L 354 259 L 354 258 L 355 257 L 355 256 L 356 255 L 356 254 L 356 253 L 357 252 L 357 251 L 358 250 L 358 249 L 359 248 L 359 247 L 360 246 L 360 245 L 361 244 L 361 243 L 361 242 L 362 241 L 362 240 L 363 239 L 363 238 L 364 237 L 364 236 L 365 235 L 365 234 L 366 233 L 366 232 L 367 231 L 367 230 L 367 229 L 368 228 L 368 227 L 369 226 L 369 225 L 370 224 L 370 223 L 371 222 L 371 221 L 372 220 L 372 219 L 372 218 L 373 217 L 373 216 L 374 215 L 374 214 L 375 213 L 375 212 L 376 211 L 376 210 L 376 209 L 377 208 L 377 207 L 378 206 L 378 205 L 379 204 L 379 203 L 380 202 L 380 201 L 380 200 L 381 199 L 381 198 L 382 197 L 382 196 L 383 195 L 383 194 L 384 193 L 384 192 L 384 191 L 385 190 L 385 189 L 386 188 L 386 187 L 387 186 L 387 185 L 387 184 L 388 183 L 388 182 L 389 181 L 389 180 L 390 179 L 390 178 L 391 177 L 391 176 L 391 175 L 392 174 L 392 173 L 393 172 L 393 171 L 394 170 L 394 169 L 395 168 L 395 167 L 395 166 L 396 165 L 396 164 L 397 163 L 397 162 L 398 161 L 398 160 L 399 159 L 399 158 L 400 157 L 400 156 L 400 155 L 401 154 L 401 153 L 402 152 L 402 151 L 403 150 L 403 149 L 404 148 L 404 147 L 405 146 L 405 145 L 405 144 L 406 143 L 406 142 L 407 141 L 407 140 L 408 139 L 408 138 L 409 137 L 409 136 L 409 135 L 410 134 L 410 133 L 411 132 L 411 131 L 412 130 L 412 129 L 413 128 L 413 127 L 414 126 L 414 125 L 414 124 L 415 123 L 415 122 L 416 121 L 416 120 L 417 119 L 417 118 L 418 117 L 418 116 L 419 115 L 419 114 L 419 113 L 420 112 L 420 111 L 421 110 L 421 109 L 422 108 L 422 107 L 423 106 L 423 105 L 424 104 L 424 103 L 424 102 L 425 101 L 425 100 L 426 99 L 426 98 L 427 97 L 427 96 L 428 95 L 428 94 L 429 93 L 429 92 L 430 91 L 430 90 L 430 89 L 431 88 L 431 87 L 432 86 L 432 85 L 433 84 L 433 83 L 434 82 L 434 81 L 434 80 L 435 79 L 435 78 L 436 77 L 436 76 L 437 75 L 437 74 L 438 73 L 438 72 L 438 71 L 439 70 L 439 69 L 440 68 L 440 67 L 441 66 L 441 65 L 442 64 L 442 63 L 442 62 L 443 61 L 443 60 L 444 59 L 444 58 L 445 57 L 445 56 L 445 55 L 446 54 L 446 53 L 447 52 L 447 51 L 448 50 L 448 49 L 449 48 L 449 47 L 449 46 L 450 45 L 450 44 L 451 43 L 451 42 L 452 41 L 452 40 L 453 39 L 453 38 L 453 37 L 454 36 L 454 35 L 455 34 L 455 33 L 456 32 L 456 31 L 457 30 L 457 29 L 458 28 L 458 27 L 458 26 L 459 25 L 459 24 L 460 23 L 460 22 L 461 21 L 461 20 L 462 19 L 462 18 L 462 17 L 463 16 L 463 15 L 464 14 L 464 13 L 463 13 L 462 13 L 461 13 L 460 13 L 459 13 L 458 13 L 457 13 L 456 13 L 455 13 L 454 13 L 453 13 L 452 13 L 451 13 L 450 13 L 449 13 L 448 13 L 447 13 L 446 13 L 445 13 L 444 13 L 443 13 L 442 13 L 441 13 L 440 13 L 439 13 L 438 13 L 437 13 L 436 13 L 435 13 L 434 13 L 433 13 L 432 13 L 431 13 L 430 13 L 429 13 L 428 13 L 427 13 L 426 13 L 425 13 L 424 13 L 423 13 L 422 13 L 421 13 L 420 13 L 419 13 L 418 13 L 417 13 L 416 13 L 415 13 L 414 13 L 413 13 L 412 13 L 411 13 L 410 13 L 409 13 L 408 13 L 407 13 L 406 13 L 405 13 L 404 13 L 403 13 L 402 13 L 401 13 L 400 13 L 399 13 L 398 13 L 397 13 L 396 13 L 395 13 L 394 13 L 393 13 L 392 13 L 391 13 L 390 13 L 389 13 L 388 13 L 387 13 L 386 13 L 385 13 L 384 13 L 383 13 L 382 13 L 381 13 L 380 13 L 379 13 L 378 13 L 378 14 L 377 15 L 377 16 L 377 17 L 376 18 L 376 19 L 376 20 L 375 21 L 375 22 L 375 23 L 375 24 L 374 25 L 374 26 L 374 27 L 373 28 L 373 29 L 373 30 L 372 31 L 372 32 L 372 33 L 372 34 L 371 35 L 371 36 L 371 37 L 370 38 L 370 39 L 370 40 L 369 41 L 369 42 L 369 43 L 369 44 L 368 45 L 368 46 L 368 47 L 367 48 L 367 49 L 367 50 L 366 51 L 366 52 L 366 53 L 365 54 L 365 55 L 365 56 L 365 57 L 364 58 L 364 59 L 364 60 L 363 61 L 363 62 L 363 63 L 362 64 L 362 65 L 362 66 L 362 67 L 361 68 L 361 69 L 361 70 L 360 71 L 360 72 L 360 73 L 359 74 L 359 75 L 359 76 L 359 77 L 358 78 L 358 79 L 358 80 L 357 81 L 357 82 L 357 83 L 356 84 L 356 85 L 356 86 L 356 87 L 355 88 L 355 89 L 355 90 L 354 91 L 354 92 L 354 93 L 353 94 L 353 95 L 353 96 L 352 97 L 352 98 L 352 99 L 352 100 L 351 101 L 351 102 L 351 103 L 350 104 L 350 105 L 350 106 L 349 107 L 349 108 L 349 109 L 348 110 L 348 111 L 348 112 L 348 113 L 347 114 L 347 115 L 347 116 L 346 117 L 346 118 L 346 119 L 345 120 L 345 121 L 345 122 L 345 123 L 344 124 L 344 125 L 344 126 L 343 127 L 343 128 L 343 129 L 342 130 L 342 131 L 342 132 L 342 133 L 341 134 L 341 135 L 341 136 L 340 137 L 340 138 L 340 139 L 340 140 L 339 141 L 339 142 L 339 143 L 338 144 L 338 145 L 338 146 L 337 147 L 337 148 L 337 149 L 337 150 L 336 151 L 336 152 L 336 153 L 335 154 L 335 155 L 335 156 L 334 157 L 334 158 L 334 159 L 334 160 L 333 161 L 333 162 L 333 163 L 332 164 L 332 165 L 332 166 L 331 167 L 331 168 L 331 169 L 331 170 L 330 171 L 330 172 L 330 173 L 329 174 L 329 175 L 329 176 L 329 177 L 328 178 L 328 179 L 328 180 L 327 181 L 327 182 L 327 183 L 327 184 L 326 185 L 326 186 L 326 187 L 325 188 L 325 189 L 325 190 L 324 191 L 324 192 L 324 193 L 324 194 L 323 195 L 323 196 L 323 197 L 322 198 L 322 199 L 322 200 L 322 201 L 321 202 L 321 203 L 321 204 L 320 205 L 320 206 L 320 207 L 319 208 L 319 209 L 319 210 L 319 211 L 318 212 L 318 213 L 318 214 L 317 215 L 317 216 L 317 217 L 316 218 L 316 219 L 316 220 L 316 221 L 315 222 L 315 223 L 315 224 L 314 225 L 314 226 L 314 227 L 313 228 L 313 229 L 313 230 L 312 231 L 312 232 L 312 233 L 312 234 L 311 235 L 311 236 L 311 237 L 310 238 L 310 239 L 310 240 L 309 241 L 309 242 L 309 243 L 309 244 L 308 245 L 308 246 L 308 247 L 307 248 L 307 249 L 307 250 L 306 251 L 306 252 L 306 253 L 306 254 L 305 255 L 305 256 L 305 257 L 304 258 L 304 259 L 304 260 L 303 261 L 303 262 L 303 263 L 303 264 L 302 265 L 302 266 L 302 267 L 301 268 L 301 269 L 301 270 L 300 271 L 300 272 L 300 273 L 300 274 L 299 275 L 299 276 L 299 277 L 298 278 L 298 279 L 298 280 L 297 281 L 297 282 L 297 283 L 296 284 L 296 285 L 296 286 L 296 287 L 295 288 L 295 289 L 295 290 L 294 291 L 294 292 L 294 293 L 293 294 L 293 295 L 293 296 L 292 297 L 292 298 L 292 299 L 292 300 L 291 301 L 291 302 L 291 303 L 290 304 L 290 305 L 290 306 L 289 307 L 289 308 L 289 309 L 289 310 L 288 311 L 288 312 L 288 313 L 287 314 L 287 315 L 287 316 L 286 317 L 286 318 L 286 319 L 286 320 L 285 321 L 285 322 L 285 323 L 284 324 L 284 325 L 284 326 L 283 327 L 283 328 L 283 329 L 283 330 L 282 331 L 282 332 L 282 333 L 281 334 L 281 335 L 281 336 L 281 337 L 280 338 L 280 339 L 280 340 L 279 341 L 279 342 L 279 343 L 278 344 L 278 345 L 278 346 L 278 347 L 277 348 L 277 349 L 277 350 L 276 351 L 276 352 L 276 353 L 275 354 L 275 355 L 275 356 L 275 357 L 274 358 L 274 359 L 273 360 L 272 360 L 271 359 L 271 358 L 271 357 L 271 356 L 271 355 L 271 354 L 271 353 L 271 352 L 271 351 L 271 350 L 271 349 L 271 348 L 271 347 L 271 346 L 271 345 L 271 344 L 271 343 L 271 342 L 271 341 L 271 340 L 271 339 L 271 338 L 271 337 L 271 336 L 271 335 L 271 334 L 271 333 L 271 332 L 271 331 L 271 330 L 271 329 L 271 328 L 271 327 L 271 326 L 271 325 L 271 324 L 271 323 L 271 322 L 271 321 L 271 320 L 271 319 L 271 318 L 271 317 L 271 316 L 271 315 L 271 314 L 271 313 L 271 312 L 271 311 L 271 310 L 271 309 L 271 308 L 271 307 L 271 306 L 271 305 L 271 304 L 271 303 L 271 302 L 271 301 L 271 300 L 271 299 L 271 298 L 271 297 L 271 296 L 271 295 L 271 294 L 271 293 L 271 292 L 271 291 L 271 290 L 271 289 L 271 288 L 271 287 L 271 286 L 271 285 L 271 284 L 271 283 L 271 282 L 271 281 L 271 280 L 271 279 L 271 278 L 271 277 L 271 276 L 271 275 L 271 274 L 271 273 L 271 272 L 271 271 L 271 270 L 271 269 L 271 268 L 271 267 L 271 266 L 271 265 L 271 264 L 271 263 L 271 262 L 271 261 L 271 260 L 271 259 L 271 258 L 271 257 L 271 256 L 271 255 L 271 254 L 271 253 L 271 252 L 271 251 L 271 250 L 271 249 L 271 248 L 271 247 L 271 246 L 271 245 L 271 244 L 271 243 L 271 242 L 271 241 L 271 240 L 271 239 L 271 238 L 271 237 L 271 236 L 271 235 L 271 234 L 271 233 L 271 232 L 271 231 L 271 230 L 271 229 L 271 228 L 271 227 L 271 226 L 271 225 L 271 224 L 271 223 L 271 222 L 271 221 L 271 220 L 271 219 L 271 218 L 271 217 L 271 216 L 271 215 L 271 214 L 271 213 L 271 212 L 271 211 L 271 210 L 271 209 L 271 208 L 271 207 L 271 206 L 271 205 L 271 204 L 271 203 L 271 202 L 271 201 L 271 200 L 271 199 L 271 198 L 271 197 L 271 196 L 271 195 L 271 194 L 271 193 L 271 192 L 271 191 L 271 190 L 271 189 L 271 188 L 271 187 L 271 186 L 271 185 L 271 184 L 271 183 L 271 182 L 271 181 L 271 180 L 271 179 L 271 178 L 271 177 L 271 176 L 271 175 L 271 174 L 271 173 L 271 172 L 271 171 L 271 170 L 271 169 L 271 168 L 271 167 L 271 166 L 271 165 L 271 164 L 271 163 L 271 162 L 271 161 L 271 160 L 271 159 L 271 158 L 271 157 L 271 156 L 271 155 L 271 154 L 271 153 L 271 152 L 271 151 L 271 150 L 271 149 L 271 148 L 271 147 L 271 146 L 271 145 L 271 144 L 271 143 L 271 142 L 271 141 L 271 140 L 271 139 L 271 138 L 271 137 L 271 136 L 271 135 L 271 134 L 271 133 L 271 132 L 271 131 L 271 130 L 271 129 L 271 128 L 271 127 L 271 126 L 271 125 L 271 124 L 271 123 L 271 122 L 271 121 L 271 120 L 271 119 L 271 118 L 271 117 L 271 116 L 271 115 L 271 114 L 271 113 L 271 112 L 271 111 L 271 110 L 271 109 L 271 108 L 271 107 L 271 106 L 271 105 L 271 104 L 271 103 L 271 102 L 271 101 L 271 100 L 271 99 L 271 98 L 271 97 L 271 96 L 271 95 L 271 94 L 271 93 L 271 92 L 271 91 L 271 90 L 271 89 L 271 88 L 271 87 L 271 86 L 271 85 L 271 84 L 271 83 L 271 82 L 271 81 L 271 80 L 271 79 L 271 78 L 271 77 L 271 76 L 271 75 L 271 74 L 271 73 L 271 72 L 271 71 L 271 70 L 271 69 L 271 68 L 271 67 L 271 66 L 271 65 L 271 64 L 271 63 L 271 62 L 271 61 L 271 60 L 271 59 L 271 58 L 271 57 L 271 56 L 271 55 L 271 54 L 271 53 L 271 52 L 271 51 L 271 50 L 271 49 L 271 48 L 271 47 L 271 46 L 271 45 L 271 44 L 271 43 L 271 42 L 271 41 L 271 40 L 271 39 L 271 38 L 271 37 L 271 36 L 271 35 L 271 34 L 271 33 L 271 32 L 271 31 L 271 30 L 271 29 L 271 28 L 271 27 L 271 26 L 271 25 L 271 24 L 271 23 L 271 22 L 271 21 L 271 20 L 271 19 L 271 18 L 271 17 L 271 16 L 271 15 L 271 14 L 271 13 L 270 13 L 269 13 L 268 13 L 267 13 L 266 13 L 265 13 L 264 13 L 263 13 L 262 13 L 261 13 L 260 13 L 259 13 L 258 13 L 257 13 L 256 13 L 255 13 L 254 13 L 253 13 L 252 13 L 251 13 L 250 13 Z" fill="black" fill-rule="evenodd"/>
<path d="M 17 13 L 17 14 L 18 15 L 18 16 L 19 17 L 19 18 L 19 19 L 20 20 L 20 21 L 21 22 L 21 23 L 22 24 L 22 25 L 23 26 L 23 27 L 24 28 L 24 29 L 24 30 L 25 31 L 25 32 L 26 33 L 26 34 L 27 35 L 27 36 L 28 37 L 28 38 L 29 39 L 29 40 L 29 41 L 30 42 L 30 43 L 31 44 L 31 45 L 32 46 L 32 47 L 33 48 L 33 49 L 33 50 L 34 51 L 34 52 L 35 53 L 35 54 L 36 55 L 36 56 L 37 57 L 37 58 L 37 59 L 38 60 L 38 61 L 39 62 L 39 63 L 40 64 L 40 65 L 40 66 L 41 67 L 41 68 L 42 69 L 42 70 L 43 71 L 43 72 L 44 73 L 44 74 L 44 75 L 45 76 L 45 77 L 46 78 L 46 79 L 47 80 L 47 81 L 47 82 L 48 83 L 48 84 L 49 85 L 49 86 L 50 87 L 50 88 L 51 89 L 51 90 L 52 91 L 52 92 L 52 93 L 53 94 L 53 95 L 54 96 L 54 97 L 55 98 L 55 99 L 56 100 L 56 101 L 57 102 L 57 103 L 57 104 L 58 105 L 58 106 L 59 107 L 59 108 L 60 109 L 60 110 L 61 111 L 61 112 L 62 113 L 62 114 L 62 115 L 63 116 L 63 117 L 64 118 L 64 119 L 65 120 L 65 121 L 66 122 L 66 123 L 67 124 L 67 125 L 67 126 L 68 127 L 68 128 L 69 129 L 69 130 L 70 131 L 70 132 L 71 133 L 71 134 L 72 135 L 72 136 L 72 137 L 73 138 L 73 139 L 74 140 L 74 141 L 75 142 L 75 143 L 76 144 L 76 145 L 77 146 L 77 147 L 77 148 L 78 149 L 78 150 L 79 151 L 79 152 L 80 153 L 80 154 L 81 155 L 81 156 L 82 157 L 82 158 L 82 159 L 83 160 L 83 161 L 84 162 L 84 163 L 85 164 L 85 165 L 86 166 L 86 167 L 86 168 L 87 169 L 87 170 L 88 171 L 88 172 L 89 173 L 89 174 L 90 175 L 90 176 L 91 177 L 91 178 L 91 179 L 92 180 L 92 181 L 93 182 L 93 183 L 94 184 L 94 185 L 95 186 L 95 187 L 95 188 L 96 189 L 96 190 L 97 191 L 97 192 L 98 193 L 98 194 L 98 195 L 99 196 L 99 197 L 100 198 L 100 199 L 101 200 L 101 201 L 101 202 L 102 203 L 102 204 L 103 205 L 103 206 L 104 207 L 104 208 L 105 209 L 105 210 L 105 211 L 106 212 L 106 213 L 107 214 L 107 215 L 108 216 L 108 217 L 109 218 L 109 219 L 110 220 L 110 221 L 110 222 L 111 223 L 111 224 L 112 225 L 112 226 L 113 227 L 113 228 L 114 229 L 114 230 L 115 231 L 115 232 L 115 233 L 116 234 L 116 235 L 117 236 L 117 237 L 118 238 L 118 239 L 119 240 L 119 241 L 120 242 L 120 243 L 120 244 L 121 245 L 121 246 L 122 247 L 122 248 L 123 249 L 123 250 L 124 251 L 124 252 L 125 253 L 125 254 L 125 255 L 126 256 L 126 257 L 127 258 L 127 259 L 128 260 L 128 261 L 129 262 L 129 263 L 129 264 L 130 265 L 130 266 L 131 267 L 131 268 L 132 269 L 132 270 L 133 271 L 133 272 L 134 273 L 134 274 L 135 275 L 135 276 L 135 277 L 136 278 L 136 279 L 137 280 L 137 281 L 138 282 L 138 283 L 139 284 L 139 285 L 139 286 L 140 287 L 140 288 L 141 289 L 141 290 L 142 291 L 142 292 L 143 293 L 143 294 L 144 295 L 144 296 L 144 297 L 145 298 L 145 299 L 146 300 L 146 301 L 147 302 L 147 303 L 148 304 L 148 305 L 149 306 L 149 307 L 149 308 L 150 309 L 150 310 L 151 311 L 151 312 L 152 313 L 152 314 L 152 315 L 153 316 L 153 317 L 154 318 L 154 319 L 155 320 L 155 321 L 156 322 L 156 323 L 156 324 L 157 325 L 157 326 L 158 327 L 158 328 L 159 329 L 159 330 L 159 331 L 160 332 L 160 333 L 161 334 L 161 335 L 162 336 L 162 337 L 163 338 L 163 339 L 163 340 L 164 341 L 164 342 L 165 343 L 165 344 L 166 345 L 166 346 L 167 347 L 167 348 L 168 349 L 168 350 L 168 351 L 169 352 L 169 353 L 170 354 L 170 355 L 171 356 L 171 357 L 172 358 L 172 359 L 173 360 L 173 361 L 173 362 L 174 363 L 174 364 L 175 365 L 175 366 L 176 367 L 176 368 L 177 369 L 177 370 L 178 371 L 178 372 L 178 373 L 179 374 L 179 375 L 180 376 L 180 377 L 181 378 L 181 379 L 182 380 L 182 381 L 182 382 L 183 383 L 183 384 L 184 385 L 184 386 L 185 387 L 185 388 L 186 389 L 186 390 L 187 391 L 187 392 L 188 393 L 188 394 L 188 395 L 189 396 L 189 397 L 190 398 L 190 399 L 191 400 L 191 401 L 192 402 L 192 403 L 192 404 L 193 405 L 193 406 L 194 407 L 194 408 L 195 409 L 195 410 L 196 411 L 196 412 L 197 413 L 197 414 L 197 415 L 198 416 L 198 417 L 199 418 L 199 419 L 200 420 L 200 421 L 201 422 L 201 423 L 202 424 L 202 425 L 202 426 L 203 427 L 203 428 L 204 429 L 204 430 L 205 431 L 205 432 L 206 433 L 206 434 L 207 435 L 207 436 L 207 437 L 208 438 L 208 439 L 209 440 L 209 441 L 210 442 L 210 443 L 211 443 L 212 443 L 213 443 L 214 443 L 215 443 L 216 443 L 217 443 L 218 443 L 219 443 L 220 443 L 221 443 L 222 443 L 223 443 L 224 443 L 225 443 L 226 443 L 227 443 L 228 443 L 229 443 L 230 443 L 231 443 L 232 443 L 232 442 L 232 441 L 232 440 L 232 439 L 232 438 L 232 437 L 232 436 L 232 435 L 232 434 L 232 433 L 232 432 L 232 431 L 232 430 L 232 429 L 232 428 L 232 427 L 232 426 L 232 425 L 232 424 L 232 423 L 232 422 L 232 421 L 232 420 L 232 419 L 232 418 L 232 417 L 232 416 L 232 415 L 232 414 L 232 413 L 232 412 L 232 411 L 232 410 L 232 409 L 232 408 L 232 407 L 232 406 L 232 405 L 232 404 L 232 403 L 232 402 L 232 401 L 232 400 L 232 399 L 232 398 L 232 397 L 232 396 L 232 395 L 232 394 L 232 393 L 232 392 L 232 391 L 232 390 L 232 389 L 232 388 L 232 387 L 232 386 L 232 385 L 232 384 L 232 383 L 232 382 L 232 381 L 232 380 L 232 379 L 232 378 L 232 377 L 232 376 L 232 375 L 232 374 L 232 373 L 232 372 L 232 371 L 232 370 L 232 369 L 232 368 L 232 367 L 232 366 L 232 365 L 232 364 L 232 363 L 232 362 L 232 361 L 232 360 L 232 359 L 232 358 L 232 357 L 232 356 L 232 355 L 232 354 L 232 353 L 232 352 L 232 351 L 232 350 L 232 349 L 232 348 L 232 347 L 232 346 L 232 345 L 232 344 L 232 343 L 232 342 L 232 341 L 232 340 L 232 339 L 232 338 L 232 337 L 232 336 L 232 335 L 232 334 L 232 333 L 232 332 L 232 331 L 232 330 L 232 329 L 232 328 L 232 327 L 232 326 L 232 325 L 232 324 L 232 323 L 232 322 L 232 321 L 232 320 L 232 319 L 232 318 L 232 317 L 232 316 L 232 315 L 232 314 L 232 313 L 232 312 L 232 311 L 232 310 L 232 309 L 232 308 L 232 307 L 232 306 L 232 305 L 232 304 L 232 303 L 232 302 L 232 301 L 232 300 L 232 299 L 232 298 L 232 297 L 232 296 L 232 295 L 232 294 L 232 293 L 232 292 L 232 291 L 232 290 L 232 289 L 232 288 L 232 287 L 232 286 L 232 285 L 232 284 L 232 283 L 232 282 L 232 281 L 232 280 L 232 279 L 232 278 L 232 277 L 232 276 L 232 275 L 232 274 L 232 273 L 232 272 L 232 271 L 232 270 L 232 269 L 232 268 L 232 267 L 232 266 L 232 265 L 232 264 L 232 263 L 232 262 L 232 261 L 232 260 L 232 259 L 232 258 L 232 257 L 232 256 L 232 255 L 232 254 L 232 253 L 232 252 L 232 251 L 232 250 L 232 249 L 232 248 L 232 247 L 232 246 L 232 245 L 232 244 L 232 243 L 232 242 L 232 241 L 232 240 L 232 239 L 232 238 L 232 237 L 232 236 L 232 235 L 232 234 L 232 233 L 232 232 L 232 231 L 232 230 L 232 229 L 232 228 L 232 227 L 232 226 L 232 225 L 232 224 L 232 223 L 232 222 L 232 221 L 232 220 L 232 219 L 232 218 L 232 217 L 232 216 L 232 215 L 232 214 L 232 213 L 232 212 L 232 211 L 232 210 L 232 209 L 232 208 L 232 207 L 232 206 L 232 205 L 232 204 L 232 203 L 232 202 L 232 201 L 232 200 L 232 199 L 232 198 L 232 197 L 232 196 L 232 195 L 232 194 L 232 193 L 232 192 L 232 191 L 232 190 L 232 189 L 232 188 L 232 187 L 232 186 L 232 185 L 232 184 L 232 183 L 232 182 L 232 181 L 232 180 L 232 179 L 232 178 L 232 177 L 232 176 L 232 175 L 232 174 L 232 173 L 232 172 L 232 171 L 232 170 L 232 169 L 232 168 L 232 167 L 232 166 L 232 165 L 232 164 L 232 163 L 232 162 L 232 161 L 232 160 L 232 159 L 232 158 L 232 157 L 232 156 L 232 155 L 232 154 L 232 153 L 232 152 L 232 151 L 232 150 L 232 149 L 232 148 L 232 147 L 232 146 L 232 145 L 232 144 L 232 143 L 232 142 L 232 141 L 232 140 L 232 139 L 232 138 L 232 137 L 232 136 L 232 135 L 232 134 L 232 133 L 232 132 L 232 131 L 232 130 L 232 129 L 232 128 L 232 127 L 232 126 L 232 125 L 232 124 L 232 123 L 232 122 L 232 121 L 232 120 L 232 119 L 232 118 L 232 117 L 232 116 L 232 115 L 232 114 L 232 113 L 232 112 L 232 111 L 232 110 L 232 109 L 232 108 L 232 107 L 232 106 L 232 105 L 232 104 L 232 103 L 232 102 L 232 101 L 232 100 L 232 99 L 232 98 L 232 97 L 232 96 L 232 95 L 232 94 L 232 93 L 232 92 L 232 91 L 232 90 L 232 89 L 232 88 L 232 87 L 232 86 L 232 85 L 232 84 L 232 83 L 232 82 L 232 81 L 232 80 L 232 79 L 232 78 L 232 77 L 232 76 L 232 75 L 232 74 L 232 73 L 232 72 L 232 71 L 232 70 L 232 69 L 232 68 L 232 67 L 232 66 L 232 65 L 232 64 L 232 63 L 232 62 L 232 61 L 232 60 L 232 59 L 232 58 L 232 57 L 232 56 L 232 55 L 232 54 L 232 53 L 232 52 L 232 51 L 232 50 L 232 49 L 232 48 L 232 47 L 232 46 L 232 45 L 232 44 L 232 43 L 232 42 L 232 41 L 232 40 L 232 39 L 232 38 L 232 37 L 232 36 L 232 35 L 232 34 L 232 33 L 232 32 L 232 31 L 232 30 L 232 29 L 232 28 L 232 27 L 232 26 L 232 25 L 232 24 L 232 23 L 232 22 L 232 21 L 232 20 L 232 19 L 232 18 L 232 17 L 232 16 L 232 15 L 232 14 L 232 13 L 231 13 L 230 13 L 229 13 L 228 13 L 227 13 L 226 13 L 225 13 L 224 13 L 223 13 L 222 13 L 221 13 L 220 13 L 219 13 L 218 13 L 217 13 L 216 13 L 215 13 L 214 13 L 213 13 L 212 13 L 211 13 L 210 13 L 210 14 L 210 15 L 210 16 L 210 17 L 210 18 L 210 19 L 210 20 L 210 21 L 210 22 L 210 23 L 210 24 L 210 25 L 210 26 L 210 27 L 210 28 L 210 29 L 210 30 L 210 31 L 210 32 L 210 33 L 210 34 L 210 35 L 210 36 L 210 37 L 210 38 L 210 39 L 210 40 L 210 41 L 210 42 L 210 43 L 210 44 L 210 45 L 210 46 L 210 47 L 210 48 L 210 49 L 210 50 L 210 51 L 210 52 L 210 53 L 210 54 L 210 55 L 210 56 L 210 57 L 210 58 L 210 59 L 210 60 L 210 61 L 210 62 L 210 63 L 210 64 L 210 65 L 210 66 L 210 67 L 210 68 L 210 69 L 210 70 L 210 71 L 210 72 L 210 73 L 210 74 L 210 75 L 210 76 L 210 77 L 210 78 L 210 79 L 210 80 L 210 81 L 210 82 L 210 83 L 210 84 L 210 85 L 210 86 L 210 87 L 210 88 L 210 89 L 210 90 L 210 91 L 210 92 L 210 93 L 210 94 L 210 95 L 210 96 L 210 97 L 210 98 L 210 99 L 210 100 L 210 101 L 210 102 L 210 103 L 210 104 L 210 105 L 210 106 L 210 107 L 210 108 L 210 109 L 210 110 L 210 111 L 210 112 L 210 113 L 210 114 L 210 115 L 210 116 L 210 117 L 210 118 L 210 119 L 210 120 L 210 121 L 210 122 L 210 123 L 210 124 L 210 125 L 210 126 L 210 127 L 210 128 L 210 129 L 210 130 L 210 131 L 210 132 L 210 133 L 210 134 L 210 135 L 210 136 L 210 137 L 210 138 L 210 139 L 210 140 L 210 141 L 210 142 L 210 143 L 210 144 L 210 145 L 210 146 L 210 147 L 210 148 L 210 149 L 210 150 L 210 151 L 210 152 L 210 153 L 210 154 L 210 155 L 210 156 L 210 157 L 210 158 L 210 159 L 210 160 L 210 161 L 210 162 L 210 163 L 210 164 L 210 165 L 210 166 L 210 167 L 210 168 L 210 169 L 210 170 L 210 171 L 210 172 L 210 173 L 210 174 L 210 175 L 210 176 L 210 177 L 210 178 L 210 179 L 210 180 L 210 181 L 210 182 L 210 183 L 210 184 L 210 185 L 210 186 L 210 187 L 210 188 L 210 189 L 210 190 L 210 191 L 210 192 L 210 193 L 210 194 L 210 195 L 210 196 L 210 197 L 210 198 L 210 199 L 210 200 L 210 201 L 210 202 L 210 203 L 210 204 L 210 205 L 210 206 L 210 207 L 210 208 L 210 209 L 210 210 L 210 211 L 210 212 L 210 213 L 210 214 L 210 215 L 210 216 L 210 217 L 210 218 L 210 219 L 210 220 L 210 221 L 210 222 L 210 223 L 210 224 L 210 225 L 210 226 L 210 227 L 210 228 L 210 229 L 210 230 L 210 231 L 210 232 L 210 233 L 210 234 L 210 235 L 210 236 L 210 237 L 210 238 L 210 239 L 210 240 L 210 241 L 210 242 L 210 243 L 210 244 L 210 245 L 210 246 L 210 247 L 210 248 L 210 249 L 210 250 L 210 251 L 210 252 L 210 253 L 210 254 L 210 255 L 210 256 L 210 257 L 210 258 L 210 259 L 210 260 L 210 261 L 210 262 L 210 263 L 210 264 L 210 265 L 210 266 L 210 267 L 210 268 L 210 269 L 210 270 L 210 271 L 210 272 L 210 273 L 210 274 L 210 275 L 210 276 L 210 277 L 210 278 L 210 279 L 210 280 L 210 281 L 210 282 L 210 283 L 210 284 L 210 285 L 210 286 L 210 287 L 210 288 L 210 289 L 210 290 L 210 291 L 210 292 L 210 293 L 210 294 L 210 295 L 210 296 L 210 297 L 210 298 L 210 299 L 210 300 L 210 301 L 210 302 L 210 303 L 210 304 L 210 305 L 210 306 L 210 307 L 210 308 L 210 309 L 210 310 L 210 311 L 210 312 L 210 313 L 210 314 L 210 315 L 210 316 L 210 317 L 210 318 L 210 319 L 210 320 L 210 321 L 210 322 L 210 323 L 210 324 L 210 325 L 210 326 L 210 327 L 210 328 L 210 329 L 210 330 L 210 331 L 210 332 L 210 333 L 210 334 L 210 335 L 210 336 L 210 337 L 210 338 L 210 339 L 210 340 L 210 341 L 210 342 L 210 343 L 210 344 L 210 345 L 210 346 L 210 347 L 210 348 L 210 349 L 210 350 L 210 351 L 210 352 L 210 353 L 210 354 L 210 355 L 210 356 L 210 357 L 210 358 L 210 359 L 209 360 L 208 360 L 207 359 L 207 358 L 207 357 L 206 356 L 206 355 L 206 354 L 205 353 L 205 352 L 205 351 L 204 350 L 204 349 L 204 348 L 204 347 L 203 346 L 203 345 L 203 344 L 202 343 L 202 342 L 202 341 L 201 340 L 201 339 L 201 338 L 201 337 L 200 336 L 200 335 L 200 334 L 199 333 L 199 332 L 199 331 L 198 330 L 198 329 L 198 328 L 198 327 L 197 326 L 197 325 L 197 324 L 196 323 L 196 322 L 196 321 L 195 320 L 195 319 L 195 318 L 195 317 L 194 316 L 194 315 L 194 314 L 193 313 L 193 312 L 193 311 L 192 310 L 192 309 L 192 308 L 192 307 L 191 306 L 191 305 L 191 304 L 190 303 L 190 302 L 190 301 L 189 300 L 189 299 L 189 298 L 189 297 L 188 296 L 188 295 L 188 294 L 187 293 L 187 292 L 187 291 L 186 290 L 186 289 L 186 288 L 185 287 L 185 286 L 185 285 L 185 284 L 184 283 L 184 282 L 184 281 L 183 280 L 183 279 L 183 278 L 182 277 L 182 276 L 182 275 L 181 274 L 181 273 L 181 272 L 181 271 L 180 270 L 180 269 L 180 268 L 179 267 L 179 266 L 179 265 L 178 264 L 178 263 L 178 262 L 178 261 L 177 260 L 177 259 L 177 258 L 176 257 L 176 256 L 176 255 L 175 254 L 175 253 L 175 252 L 175 251 L 174 250 L 174 249 L 174 248 L 173 247 L 173 246 L 173 245 L 172 244 L 172 243 L 172 242 L 172 241 L 171 240 L 171 239 L 171 238 L 170 237 L 170 236 L 170 235 L 169 234 L 169 233 L 169 232 L 169 231 L 168 230 L 168 229 L 168 228 L 167 227 L 167 226 L 167 225 L 166 224 L 166 223 L 166 222 L 166 221 L 165 220 L 165 219 L 165 218 L 164 217 L 164 216 L 164 215 L 163 214 L 163 213 L 163 212 L 163 211 L 162 210 L 162 209 L 162 208 L 161 207 L 161 206 L 161 205 L 160 204 L 160 203 L 160 202 L 160 201 L 159 200 L 159 199 L 159 198 L 158 197 L 158 196 L 158 195 L 157 194 L 157 193 L 157 192 L 157 191 L 156 190 L 156 189 L 156 188 L 155 187 L 155 186 L 155 185 L 155 184 L 154 183 L 154 182 L 154 181 L 153 180 L 153 179 L 153 178 L 153 177 L 152 176 L 152 175 L 152 174 L 151 173 L 151 172 L 151 171 L 150 170 L 150 169 L 150 168 L 150 167 L 149 166 L 149 165 L 149 164 L 148 163 L 148 162 L 148 161 L 147 160 L 147 159 L 147 158 L 147 157 L 146 156 L 146 155 L 146 154 L 145 153 L 145 152 L 145 151 L 145 150 L 144 149 L 144 148 L 144 147 L 143 146 L 143 145 L 143 144 L 142 143 L 142 142 L 142 141 L 142 140 L 141 139 L 141 138 L 141 137 L 140 136 L 140 135 L 140 134 L 139 133 L 139 132 L 139 131 L 139 130 L 138 129 L 138 128 L 138 127 L 137 126 L 137 125 L 137 124 L 136 123 L 136 122 L 136 121 L 136 120 L 135 119 L 135 118 L 135 117 L 134 116 L 134 115 L 134 114 L 133 113 L 133 112 L 133 111 L 133 110 L 132 109 L 132 108 L 132 107 L 131 106 L 131 105 L 131 104 L 130 103 L 130 102 L 130 101 L 129 100 L 129 99 L 129 98 L 129 97 L 128 96 L 128 95 L 128 94 L 127 93 L 127 92 L 127 91 L 126 90 L 126 89 L 126 88 L 125 87 L 125 86 L 125 85 L 125 84 L 124 83 L 124 82 L 124 81 L 123 80 L 123 79 L 123 78 L 122 77 L 122 76 L 122 75 L 122 74 L 121 73 L 121 72 L 121 71 L 120 70 L 120 69 L 120 68 L 119 67 L 119 66 L 119 65 L 119 64 L 118 63 L 118 62 L 118 61 L 117 60 L 117 59 L 117 58 L 116 57 L 116 56 L 116 55 L 116 54 L 115 53 L 115 52 L 115 51 L 114 50 L 114 49 L 114 48 L 113 47 L 113 46 L 113 45 L 113 44 L 112 43 L 112 42 L 112 41 L 111 40 L 111 39 L 111 38 L 110 37 L 110 36 L 110 35 L 109 34 L 109 33 L 109 32 L 109 31 L 108 30 L 108 29 L 108 28 L 107 27 L 107 26 L 107 25 L 106 24 L 106 23 L 106 22 L 106 21 L 105 20 L 105 19 L 105 18 L 104 17 L 104 16 L 104 15 L 103 14 L 103 13 L 102 13 L 101 13 L 100 13 L 99 13 L 98 13 L 97 13 L 96 13 L 95 13 L 94 13 L 93 13 L 92 13 L 91 13 L 90 13 L 89 13 L 88 13 L 87 13 L 86 13 L 85 13 L 84 13 L 83 13 L 82 13 L 81 13 L 80 13 L 79 13 L 78 13 L 77 13 L 76 13 L 75 13 L 74 13 L 73 13 L 72 13 L 71 13 L 70 13 L 69 13 L 68 13 L 67 13 L 66 13 L 65 13 L 64 13 L 63 13 L 62 13 L 61 13 L 60 13 L 59 13 L 58 13 L 57 13 L 56 13 L 55 13 L 54 13 L 53 13 L 52 13 L 51 13 L 50 13 L 49 13 L 48 13 L 47 13 L 46 13 L 45 13 L 44 13 L 43 13 L 42 13 L 41 13 L 40 13 L 39 13 L 38 13 L 37 13 L 36 13 L 35 13 L 34 13 L 33 13 L 32 13 L 31 13 L 30 13 L 29 13 L 28 13 L 27 13 L 26 13 L 25 13 L 24 13 L 23 13 L 22 13 L 21 13 L 20 13 L 19 13 L 18 13 Z" fill="black" fill-rule="evenodd"/>
</svg>