0
SECTION
2
ENTITIES
0
LWPOLYLINE
8
0
90
1685
70
1
10
249.0
20
445.0
10
249.0
20
444.0
10
249.0
20
443.0
10
249.0
20
442.0
10
249.0
20
441.0
10
249.0
20
440.0
10
249.0
20
439.0
10
249.0
20
438.0
10
249.0
20
437.0
10
249.0
20
436.0
10
249.0
20
435.0
10
249.0
20
434.0
10
249.0
20
433.0
10
249.0
20
432.0
10
249.0
20
431.0
10
249.0
20
430.0
10
249.0
20
429.0
10
249.0
20
428.0
10
249.0
20
427.0
10
249.0
20
426.0
10
249.0
20
425.0
10
249.0
20
424.0
10
249.0
20
423.0
10
249.0
20
422.0
10
249.0
20
421.0
10
249.0
20
420.0
10
249.0
20
419.0
10
249.0
20
418.0
10
249.0
20
417.0
10
249.0
20
416.0
10
249.0
20
415.0
10
249.0
20
414.0
10
249.0
20
413.0
10
249.0
20
412.0
10
249.0
20
411.0
10
249.0
20
410.0
10
249.0
20
409.0
10
249.0
20
408.0
10
249.0
20
407.0
10
249.0
20
406.0
10
249.0
20
405.0
10
249.0
20
404.0
10
249.0
20
403.0
10
249.0
20
402.0
10
249.0
20
401.0
10
249.0
20
400.0
10
249.0
20
399.0
10
249.0
20
398.0
10
249.0
20
397.0
10
249.0
20
396.0
10
249.0
20
395.0
10
249.0
20
394.0
10
249.0
20
393.0
10
249.0
20
392.0
10
249.0
20
391.0
10
249.0
20
390.0
10
249.0
20
389.0
10
249.0
20
388.0
10
249.0
20
387.0
10
249.0
20
386.0
10
249.0
20
385.0
10
249.0
20
384.0
10
249.0
20
383.0
10
249.0
20
382.0
10
249.0
20
381.0
10
249.0
20
380.0
10
249.0
20
379.0
10
249.0
20
378.0
10
249.0
20
377.0
10
249.0
20
376.0
10
249.0
20
375.0
10
249.0
20
374.0
10
249.0
20
373.0
10
249.0
20
372.0
10
249.0
20
371.0
10
249.0
20
370.0
10
249.0
20
369.0
10
249.0
20
368.0
10
249.0
20
367.0
10
249.0
20
366.0
10
249.0
20
365.0
10
249.0
20
364.0
10
249.0
20
363.0
10
249.0
20
362.0
10
249.0
20
361.0
10
249.0
20
360.0
10
249.0
20
359.0
10
249.0
20
358.0
10
249.0
20
357.0
10
249.0
20
356.0
10
249.0
20
355.0
10
249.0
20
354.0
10
249.0
20
353.0
10
249.0
20
352.0
10
249.0
20
351.0
10
249.0
20
350.0
10
249.0
20
349.0
10
249.0
20
348.0
10
249.0
20
347.0
10
249.0
20
346.0
10
249.0
20
345.0
10
249.0
20
344.0
10
249.0
20
343.0
10
249.0
20
342.0
10
249.0
20
341.0
10
249.0
20
340.0
10
249.0
20
339.0
10
249.0
20
338.0
10
249.0
20
337.0
10
249.0
20
336.0
10
249.0
20
335.0
10
249.0
20
334.0
10
249.0
20
333.0
10
249.0
20
332.0
10
249.0
20
331.0
10
249.0
20
330.0
10
249.0
20
329.0
10
249.0
20
328.0
10
249.0
20
327.0
10
249.0
20
326.0
10
249.0
20
325.0
10
249.0
20
324.0
10
249.0
20
323.0
10
249.0
20
322.0
10
249.0
20
321.0
10
249.0
20
320.0
10
249.0
20
319.0
10
249.0
20
318.0
10
249.0
20
317.0
10
249.0
20
316.0
10
249.0
20
315.0
10
249.0
20
314.0
10
249.0
20
313.0
10
249.0
20
312.0
10
249.0
20
311.0
10
249.0
20
310.0
10
249.0
20
309.0
10
249.0
20
308.0
10
249.0
20
307.0
10
249.0
20
306.0
10
249.0
20
305.0
10
249.0
20
304.0
10
249.0
20
303.0
10
249.0
20
302.0
10
249.0
20
301.0
10
249.0
20
300.0
10
249.0
20
299.0
10
249.0
20
298.0
10
249.0
20
297.0
10
249.0
20
296.0
10
249.0
20
295.0
10
249.0
20
294.0
10
249.0
20
293.0
10
249.0
20
292.0
10
249.0
20
291.0
10
249.0
20
290.0
10
249.0
20
289.0
10
249.0
20
288.0
10
249.0
20
287.0
10
249.0
20
286.0
10
249.0
20
285.0
10
249.0
20
284.0
10
249.0
20
283.0
10
249.0
20
282.0
10
249.0
20
281.0
10
249.0
20
280.0
10
249.0
20
279.0
10
249.0
20
278.0
10
249.0
20
277.0
10
249.0
20
276.0
10
249.0
20
275.0
10
249.0
20
274.0
10
249.0
20
273.0
10
249.0
20
272.0
10
249.0
20
271.0
10
249.0
20
270.0
10
249.0
20
269.0
10
249.0
20
268.0
10
249.0
20
267.0
10
249.0
20
266.0
10
249.0
20
265.0
10
249.0
20
264.0
10
249.0
20
263.0
10
249.0
20
262.0
10
249.0
20
261.0
10
249.0
20
260.0
10
249.0
20
259.0
10
249.0
20
258.0
10
249.0
20
257.0
10
249.0
20
256.0
10
249.0
20
255.0
10
249.0
20
254.0
10
249.0
20
253.0
10
249.0
20
252.0
10
249.0
20
251.0
10
249.0
20
250.0
10
249.0
20
249.0
10
249.0
20
248.0
10
249.0
20
247.0
10
249.0
20
246.0
10
249.0
20
245.0
10
249.0
20
244.0
10
249.0
20
243.0
10
249.0
20
242.0
10
249.0
20
241.0
10
249.0
20
240.0
10
249.0
20
239.0
10
249.0
20
238.0
10
249.0
20
237.0
10
249.0
20
236.0
10
249.0
20
235.0
10
249.0
20
234.0
10
249.0
20
233.0
10
249.0
20
232.0
10
249.0
20
231.0
10
249.0
20
230.0
10
249.0
20
229.0
10
249.0
20
228.0
10
249.0
20
227.0
10
249.0
20
226.0
10
249.0
20
225.0
10
249.0
20
224.0
10
249.0
20
223.0
10
249.0
20
222.0
10
249.0
20
221.0
10
249.0
20
220.0
10
249.0
20
219.0
10
249.0
20
218.0
10
249.0
20
217.0
10
249.0
20
216.0
10
249.0
20
215.0
10
249.0
20
214.0
10
249.0
20
213.0
10
249.0
20
212.0
10
249.0
20
211.0
10
249.0
20
210.0
10
249.0
20
209.0
10
249.0
20
208.0
10
249.0
20
207.0
10
249.0
20
206.0
10
249.0
20
205.0
10
249.0
20
204.0
10
249.0
20
203.0
10
249.0
20
202.0
10
249.0
20
201.0
10
249.0
20
200.0
10
249.0
20
199.0
10
249.0
20
198.0
10
249.0
20
197.0
10
249.0
20
196.0
10
249.0
20
195.0
10
249.0
20
194.0
10
249.0
20
193.0
10
249.0
20
192.0
10
249.0
20
191.0
10
249.0
20
190.0
10
249.0
20
189.0
10
249.0
20
188.0
10
249.0
20
187.0
10
249.0
20
186.0
10
249.0
20
185.0
10
249.0
20
184.0
10
249.0
20
183.0
10
249.0
20
182.0
10
249.0
20
181.0
10
249.0
20
180.0
10
249.0
20
179.0
10
249.0
20
178.0
10
249.0
20
177.0
10
249.0
20
176.0
10
249.0
20
175.0
10
249.0
20
174.0
10
249.0
20
173.0
10
249.0
20
172.0
10
249.0
20
171.0
10
249.0
20
170.0
10
249.0
20
169.0
10
249.0
20
168.0
10
249.0
20
167.0
10
249.0
20
166.0
10
249.0
20
165.0
10
249.0
20
164.0
10
249.0
20
163.0
10
249.0
20
162.0
10
249.0
20
161.0
10
249.0
20
160.0
10
249.0
20
159.0
10
249.0
20
158.0
10
249.0
20
157.0
10
249.0
20
156.0
10
249.0
20
155.0
10
249.0
20
154.0
10
249.0
20
153.0
10
249.0
20
152.0
10
249.0
20
151.0
10
249.0
20
150.0
10
249.0
20
149.0
10
249.0
20
148.0
10
249.0
20
147.0
10
249.0
20
146.0
10
249.0
20
145.0
10
249.0
20
144.0
10
249.0
20
143.0
10
249.0
20
142.0
10
249.0
20
141.0
10
249.0
20
140.0
10
249.0
20
139.0
10
249.0
20
138.0
10
249.0
20
137.0
10
249.0
20
136.0
10
249.0
20
135.0
10
249.0
20
134.0
10
249.0
20
133.0
10
249.0
20
132.0
10
249.0
20
131.0
10
249.0
20
130.0
10
249.0
20
129.0
10
249.0
20
128.0
10
249.0
20
127.0
10
249.0
20
126.0
10
249.0
20
125.0
10
249.0
20
124.0
10
249.0
20
123.0
10
249.0
20
122.0
10
249.0
20
121.0
10
249.0
20
120.0
10
249.0
20
119.0
10
249.0
20
118.0
10
249.0
20
117.0
10
249.0
20
116.0
10
249.0
20
115.0
10
249.0
20
114.0
10
249.0
20
113.0
10
249.0
20
112.0
10
249.0
20
111.0
10
249.0
20
110.0
10
249.0
20
109.0
10
249.0
20
108.0
10
249.0
20
107.0
10
249.0
20
106.0
10
249.0
20
105.0
10
249.0
20
104.0
10
249.0
20
103.0
10
249.0
20
102.0
10
249.0
20
101.0
10
249.0
20
100.0
10
249.0
20
99.0
10
249.0
20
98.0
10
249.0
20
97.0
10
249.0
20
96.0
10
249.0
20
95.0
10
249.0
20
94.0
10
249.0
20
93.0
10
249.0
20
92.0
10
249.0
20
91.0
10
249.0
20
90.0
10
249.0
20
89.0
10
249.0
20
88.0
10
249.0
20
87.0
10
249.0
20
86.0
10
249.0
20
85.0
10
249.0
20
84.0
10
249.0
20
83.0
10
249.0
20
82.0
10
249.0
20
81.0
10
249.0
20
80.0
10
249.0
20
79.0
10
249.0
20
78.0
10
249.0
20
77.0
10
249.0
20
76.0
10
249.0
20
75.0
10
249.0
20
74.0
10
249.0
20
73.0
10
249.0
20
72.0
10
249.0
20
71.0
10
249.0
20
70.0
10
249.0
20
69.0
10
249.0
20
68.0
10
249.0
20
67.0
10
249.0
20
66.0
10
249.0
20
65.0
10
249.0
20
64.0
10
249.0
20
63.0
10
249.0
20
62.0
10
249.0
20
61.0
10
249.0
20
60.0
10
249.0
20
59.0
10
249.0
20
58.0
10
249.0
20
57.0
10
249.0
20
56.0
10
249.0
20
55.0
10
249.0
20
54.0
10
249.0
20
53.0
10
249.0
20
52.0
10
249.0
20
51.0
10
249.0
20
50.0
10
249.0
20
49.0
10
249.0
20
48.0
10
249.0
20
47.0
10
249.0
20
46.0
10
249.0
20
45.0
10
249.0
20
44.0
10
249.0
20
43.0
10
249.0
20
42.0
10
249.0
20
41.0
10
249.0
20
40.0
10
249.0
20
39.0
10
249.0
20
38.0
10
249.0
20
37.0
10
249.0
20
36.0
10
249.0
20
35.0
10
249.0
20
34.0
10
249.0
20
33.0
10
249.0
20
32.0
10
249.0
20
31.0
10
249.0
20
30.0
10
249.0
20
29.0
10
249.0
20
28.0
10
249.0
20
27.0
10
249.0
20
26.0
10
249.0
20
25.0
10
249.0
20
24.0
10
249.0
20
23.0
10
249.0
20
22.0
10
249.0
20
21.0
10
249.0
20
20.0
10
249.0
20
19.0
10
249.0
20
18.0
10
249.0
20
17.0
10
249.0
20
16.0
10
249.0
20
15.0
10
250.0
20
15.0
10
251.0
20
15.0
10
252.0
20
15.0
10
253.0
20
15.0
10
254.0
20
15.0
10
255.0
20
15.0
10
256.0
20
15.0
10
257.0
20
15.0
10
258.0
20
15.0
10
259.0
20
15.0
10
260.0
20
15.0
10
261.0
20
15.0
10
262.0
20
15.0
10
263.0
20
15.0
10
264.0
20
15.0
10
265.0
20
15.0
10
266.0
20
15.0
10
267.0
20
15.0
10
268.0
20
15.0
10
269.0
20
15.0
10
270.0
20
15.0
10
271.0
20
15.0
10
271.0
20
16.0
10
272.0
20
17.0
10
272.0
20
18.0
10
273.0
20
19.0
10
273.0
20
20.0
10
274.0
20
21.0
10
274.0
20
22.0
10
275.0
20
23.0
10
275.0
20
24.0
10
275.0
20
25.0
10
276.0
20
26.0
10
276.0
20
27.0
10
277.0
20
28.0
10
277.0
20
29.0
10
278.0
20
30.0
10
278.0
20
31.0
10
279.0
20
32.0
10
279.0
20
33.0
10
279.0
20
34.0
10
280.0
20
35.0
10
280.0
20
36.0
10
281.0
20
37.0
10
281.0
20
38.0
10
282.0
20
39.0
10
282.0
20
40.0
10
283.0
20
41.0
10
283.0
20
42.0
10
284.0
20
43.0
10
284.0
20
44.0
10
284.0
20
45.0
10
285.0
20
46.0
10
285.0
20
47.0
10
286.0
20
48.0
10
286.0
20
49.0
10
287.0
20
50.0
10
287.0
20
51.0
10
288.0
20
52.0
10
288.0
20
53.0
10
289.0
20
54.0
10
289.0
20
55.0
10
289.0
20
56.0
10
290.0
20
57.0
10
290.0
20
58.0
10
291.0
20
59.0
10
291.0
20
60.0
10
292.0
20
61.0
10
292.0
20
62.0
10
293.0
20
63.0
10
293.0
20
64.0
10
293.0
20
65.0
10
294.0
20
66.0
10
294.0
20
67.0
10
295.0
20
68.0
10
295.0
20
69.0
10
296.0
20
70.0
10
296.0
20
71.0
10
297.0
20
72.0
10
297.0
20
73.0
10
298.0
20
74.0
10
298.0
20
75.0
10
299.0
20
76.0
10
299.0
20
77.0
10
299.0
20
78.0
10
300.0
20
79.0
10
300.0
20
80.0
10
301.0
20
81.0
10
301.0
20
82.0
10
302.0
20
83.0
10
302.0
20
84.0
10
303.0
20
85.0
10
303.0
20
86.0
10
303.0
20
87.0
10
304.0
20
88.0
10
304.0
20
89.0
10
305.0
20
90.0
10
305.0
20
91.0
10
306.0
20
92.0
10
306.0
20
93.0
10
307.0
20
94.0
10
307.0
20
95.0
10
308.0
20
96.0
10
308.0
20
97.0
10
309.0
20
98.0
10
309.0
20
99.0
10
309.0
20
100.0
10
310.0
20
101.0
10
310.0
20
102.0
10
311.0
20
103.0
10
311.0
20
104.0
10
312.0
20
105.0
10
312.0
20
106.0
10
313.0
20
107.0
10
313.0
20
108.0
10
314.0
20
109.0
10
314.0
20
110.0
10
314.0
20
111.0
10
315.0
20
112.0
10
315.0
20
113.0
10
316.0
20
114.0
10
316.0
20
115.0
10
317.0
20
116.0
10
317.0
20
117.0
10
318.0
20
118.0
10
318.0
20
119.0
10
319.0
20
120.0
10
319.0
20
121.0
10
319.0
20
122.0
10
320.0
20
123.0
10
320.0
20
124.0
10
321.0
20
125.0
10
321.0
20
126.0
10
322.0
20
127.0
10
322.0
20
128.0
10
322.0
20
129.0
10
323.0
20
130.0
10
323.0
20
131.0
10
324.0
20
132.0
10
324.0
20
133.0
10
325.0
20
134.0
10
325.0
20
135.0
10
326.0
20
136.0
10
326.0
20
137.0
10
326.0
20
138.0
10
327.0
20
139.0
10
327.0
20
140.0
10
328.0
20
141.0
10
328.0
20
142.0
10
329.0
20
143.0
10
329.0
20
144.0
10
329.0
20
145.0
10
330.0
20
146.0
10
330.0
20
147.0
10
331.0
20
148.0
10
331.0
20
149.0
10
332.0
20
150.0
10
332.0
20
151.0
10
333.0
20
152.0
10
333.0
20
153.0
10
333.0
20
154.0
10
334.0
20
155.0
10
334.0
20
156.0
10
335.0
20
157.0
10
335.0
20
158.0
10
336.0
20
159.0
10
336.0
20
160.0
10
337.0
20
161.0
10
337.0
20
162.0
10
337.0
20
163.0
10
338.0
20
164.0
10
338.0
20
165.0
10
339.0
20
166.0
10
339.0
20
167.0
10
340.0
20
168.0
10
340.0
20
169.0
10
341.0
20
170.0
10
341.0
20
171.0
10
342.0
20
172.0
10
342.0
20
173.0
10
342.0
20
174.0
10
343.0
20
175.0
10
343.0
20
176.0
10
344.0
20
177.0
10
344.0
20
178.0
10
345.0
20
179.0
10
345.0
20
180.0
10
346.0
20
181.0
10
346.0
20
182.0
10
346.0
20
183.0
10
347.0
20
184.0
10
347.0
20
185.0
10
348.0
20
186.0
10
348.0
20
187.0
10
349.0
20
188.0
10
349.0
20
189.0
10
350.0
20
190.0
10
350.0
20
191.0
10
351.0
20
192.0
10
351.0
20
193.0
10
352.0
20
194.0
10
352.0
20
195.0
10
352.0
20
196.0
10
353.0
20
197.0
10
353.0
20
198.0
10
354.0
20
199.0
10
354.0
20
200.0
10
355.0
20
201.0
10
355.0
20
202.0
10
356.0
20
203.0
10
356.0
20
204.0
10
356.0
20
205.0
10
357.0
20
206.0
10
357.0
20
207.0
10
358.0
20
208.0
10
358.0
20
209.0
10
359.0
20
210.0
10
359.0
20
211.0
10
360.0
20
212.0
10
360.0
20
213.0
10
361.0
20
214.0
10
361.0
20
215.0
10
361.0
20
216.0
10
362.0
20
217.0
10
362.0
20
218.0
10
363.0
20
219.0
10
363.0
20
220.0
10
364.0
20
221.0
10
364.0
20
222.0
10
365.0
20
223.0
10
365.0
20
224.0
10
366.0
20
225.0
10
366.0
20
226.0
10
367.0
20
227.0
10
367.0
20
228.0
10
367.0
20
229.0
10
368.0
20
230.0
10
368.0
20
231.0
10
369.0
20
232.0
10
369.0
20
233.0
10
370.0
20
234.0
10
370.0
20
235.0
10
371.0
20
236.0
10
371.0
20
237.0
10
372.0
20
238.0
10
372.0
20
239.0
10
372.0
20
240.0
10
373.0
20
241.0
10
373.0
20
242.0
10
374.0
20
243.0
10
374.0
20
244.0
10
375.0
20
245.0
10
375.0
20
246.0
10
376.0
20
247.0
10
376.0
20
248.0
10
376.0
20
249.0
10
377.0
20
250.0
10
377.0
20
251.0
10
378.0
20
252.0
10
378.0
20
253.0
10
379.0
20
254.0
10
379.0
20
255.0
10
380.0
20
256.0
10
380.0
20
257.0
10
380.0
20
258.0
10
381.0
20
259.0
10
381.0
20
260.0
10
382.0
20
261.0
10
382.0
20
262.0
10
383.0
20
263.0
10
383.0
20
264.0
10
384.0
20
265.0
10
384.0
20
266.0
10
384.0
20
267.0
10
385.0
20
268.0
10
385.0
20
269.0
10
386.0
20
270.0
10
386.0
20
271.0
10
387.0
20
272.0
10
387.0
20
273.0
10
387.0
20
274.0
10
388.0
20
275.0
10
388.0
20
276.0
10
389.0
20
277.0
10
389.0
20
278.0
10
390.0
20
279.0
10
390.0
20
280.0
10
391.0
20
281.0
10
391.0
20
282.0
10
391.0
20
283.0
10
392.0
20
284.0
10
392.0
20
285.0
10
393.0
20
286.0
10
393.0
20
287.0
10
394.0
20
288.0
10
394.0
20
289.0
10
395.0
20
290.0
10
395.0
20
291.0
10
395.0
20
292.0
10
396.0
20
293.0
10
396.0
20
294.0
10
397.0
20
295.0
10
397.0
20
296.0
10
398.0
20
297.0
10
398.0
20
298.0
10
399.0
20
299.0
10
399.0
20
300.0
10
400.0
20
301.0
10
400.0
20
302.0
10
400.0
20
303.0
10
401.0
20
304.0
10
401.0
20
305.0
10
402.0
20
306.0
10
402.0
20
307.0
10
403.0
20
308.0
10
403.0
20
309.0
10
404.0
20
310.0
10
404.0
20
311.0
10
405.0
20
312.0
10
405.0
20
313.0
10
405.0
20
314.0
10
406.0
20
315.0
10
406.0
20
316.0
10
407.0
20
317.0
10
407.0
20
318.0
10
408.0
20
319.0
10
408.0
20
320.0
10
409.0
20
321.0
10
409.0
20
322.0
10
409.0
20
323.0
10
410.0
20
324.0
10
410.0
20
325.0
10
411.0
20
326.0
10
411.0
20
327.0
10
412.0
20
328.0
10
412.0
20
329.0
10
413.0
20
330.0
10
413.0
20
331.0
10
414.0
20
332.0
10
414.0
20
333.0
10
414.0
20
334.0
10
415.0
20
335.0
10
415.0
20
336.0
10
416.0
20
337.0
10
416.0
20
338.0
10
417.0
20
339.0
10
417.0
20
340.0
10
418.0
20
341.0
10
418.0
20
342.0
10
419.0
20
343.0
10
419.0
20
344.0
10
419.0
20
345.0
10
420.0
20
346.0
10
420.0
20
347.0
10
421.0
20
348.0
10
421.0
20
349.0
10
422.0
20
350.0
10
422.0
20
351.0
10
423.0
20
352.0
10
423.0
20
353.0
10
424.0
20
354.0
10
424.0
20
355.0
10
424.0
20
356.0
10
425.0
20
357.0
10
425.0
20
358.0
10
426.0
20
359.0
10
426.0
20
360.0
10
427.0
20
361.0
10
427.0
20
362.0
10
428.0
20
363.0
10
428.0
20
364.0
10
429.0
20
365.0
10
429.0
20
366.0
10
430.0
20
367.0
10
430.0
20
368.0
10
430.0
20
369.0
10
431.0
20
370.0
10
431.0
20
371.0
10
432.0
20
372.0
10
432.0
20
373.0
10
433.0
20
374.0
10
433.0
20
375.0
10
434.0
20
376.0
10
434.0
20
377.0
10
434.0
20
378.0
10
435.0
20
379.0
10
435.0
20
380.0
10
436.0
20
381.0
10
436.0
20
382.0
10
437.0
20
383.0
10
437.0
20
384.0
10
438.0
20
385.0
10
438.0
20
386.0
10
438.0
20
387.0
10
439.0
20
388.0
10
439.0
20
389.0
10
440.0
20
390.0
10
440.0
20
391.0
10
441.0
20
392.0
10
441.0
20
393.0
10
442.0
20
394.0
10
442.0
20
395.0
10
442.0
20
396.0
10
443.0
20
397.0
10
443.0
20
398.0
10
444.0
20
399.0
10
444.0
20
400.0
10
445.0
20
401.0
10
445.0
20
402.0
10
445.0
20
403.0
10
446.0
20
404.0
10
446.0
20
405.0
10
447.0
20
406.0
10
447.0
20
407.0
10
448.0
20
408.0
10
448.0
20
409.0
10
449.0
20
410.0
10
449.0
20
411.0
10
449.0
20
412.0
10
450.0
20
413.0
10
450.0
20
414.0
10
451.0
20
415.0
10
451.0
20
416.0
10
452.0
20
417.0
10
452.0
20
418.0
10
453.0
20
419.0
10
453.0
20
420.0
10
453.0
20
421.0
10
454.0
20
422.0
10
454.0
20
423.0
10
455.0
20
424.0
10
455.0
20
425.0
10
456.0
20
426.0
10
456.0
20
427.0
10
457.0
20
428.0
10
457.0
20
429.0
10
458.0
20
430.0
10
458.0
20
431.0
10
458.0
20
432.0
10
459.0
20
433.0
10
459.0
20
434.0
10
460.0
20
435.0
10
460.0
20
436.0
10
461.0
20
437.0
10
461.0
20
438.0
10
462.0
20
439.0
10
462.0
20
440.0
10
462.0
20
441.0
10
463.0
20
442.0
10
463.0
20
443.0
10
464.0
20
444.0
10
464.0
20
445.0
10
463.0
20
445.0
10
462.0
20
445.0
10
461.0
20
445.0
10
460.0
20
445.0
10
459.0
20
445.0
10
458.0
20
445.0
10
457.0
20
445.0
10
456.0
20
445.0
10
455.0
20
445.0
10
454.0
20
445.0
10
453.0
20
445.0
10
452.0
20
445.0
10
451.0
20
445.0
10
450.0
20
445.0
10
449.0
20
445.0
10
448.0
20
445.0
10
447.0
20
445.0
10
446.0
20
445.0
10
445.0
20
445.0
10
444.0
20
445.0
10
443.0
20
445.0
10
442.0
20
445.0
10
441.0
20
445.0
10
440.0
20
445.0
10
439.0
20
445.0
10
438.0
20
445.0
10
437.0
20
445.0
10
436.0
20
445.0
10
435.0
20
445.0
10
434.0
20
445.0
10
433.0
20
445.0
10
432.0
20
445.0
10
431.0
20
445.0
10
430.0
20
445.0
10
429.0
20
445.0
10
428.0
20
445.0
10
427.0
20
445.0
10
426.0
20
445.0
10
425.0
20
445.0
10
424.0
20
445.0
10
423.0
20
445.0
10
422.0
20
445.0
10
421.0
20
445.0
10
420.0
20
445.0
10
419.0
20
445.0
10
418.0
20
445.0
10
417.0
20
445.0
10
416.0
20
445.0
10
415.0
20
445.0
10
414.0
20
445.0
10
413.0
20
445.0
10
412.0
20
445.0
10
411.0
20
445.0
10
410.0
20
445.0
10
409.0
20
445.0
10
408.0
20
445.0
10
407.0
20
445.0
10
406.0
20
445.0
10
405.0
20
445.0
10
404.0
20
445.0
10
403.0
20
445.0
10
402.0
20
445.0
10
401.0
20
445.0
10
400.0
20
445.0
10
399.0
20
445.0
10
398.0
20
445.0
10
397.0
20
445.0
10
396.0
20
445.0
10
395.0
20
445.0
10
394.0
20
445.0
10
393.0
20
445.0
10
392.0
20
445.0
10
391.0
20
445.0
10
390.0
20
445.0
10
389.0
20
445.0
10
388.0
20
445.0
10
387.0
20
445.0
10
386.0
20
445.0
10
385.0
20
445.0
10
384.0
20
445.0
10
383.0
20
445.0
10
382.0
20
445.0
10
381.0
20
445.0
10
380.0
20
445.0
10
379.0
20
445.0
10
378.0
20
445.0
10
378.0
20
444.0
10
377.0
20
443.0
10
377.0
20
442.0
10
377.0
20
441.0
10
376.0
20
440.0
10
376.0
20
439.0
10
376.0
20
438.0
10
375.0
20
437.0
10
375.0
20
436.0
10
375.0
20
435.0
10
375.0
20
434.0
10
374.0
20
433.0
10
374.0
20
432.0
10
374.0
20
431.0
10
373.0
20
430.0
10
373.0
20
429.0
10
373.0
20
428.0
10
372.0
20
427.0
10
372.0
20
426.0
10
372.0
20
425.0
10
372.0
20
424.0
10
371.0
20
423.0
10
371.0
20
422.0
10
371.0
20
421.0
10
370.0
20
420.0
10
370.0
20
419.0
10
370.0
20
418.0
10
369.0
20
417.0
10
369.0
20
416.0
10
369.0
20
415.0
10
369.0
20
414.0
10
368.0
20
413.0
10
368.0
20
412.0
10
368.0
20
411.0
10
367.0
20
410.0
10
367.0
20
409.0
10
367.0
20
408.0
10
366.0
20
407.0
10
366.0
20
406.0
10
366.0
20
405.0
10
365.0
20
404.0
10
365.0
20
403.0
10
365.0
20
402.0
10
365.0
20
401.0
10
364.0
20
400.0
10
364.0
20
399.0
10
364.0
20
398.0
10
363.0
20
397.0
10
363.0
20
396.0
10
363.0
20
395.0
10
362.0
20
394.0
10
362.0
20
393.0
10
362.0
20
392.0
10
362.0
20
391.0
10
361.0
20
390.0
10
361.0
20
389.0
10
361.0
20
388.0
10
360.0
20
387.0
10
360.0
20
386.0
10
360.0
20
385.0
10
359.0
20
384.0
10
359.0
20
383.0
10
359.0
20
382.0
10
359.0
20
381.0
10
358.0
20
380.0
10
358.0
20
379.0
10
358.0
20
378.0
10
357.0
20
377.0
10
357.0
20
376.0
10
357.0
20
375.0
10
356.0
20
374.0
10
356.0
20
373.0
10
356.0
20
372.0
10
356.0
20
371.0
10
355.0
20
370.0
10
355.0
20
369.0
10
355.0
20
368.0
10
354.0
20
367.0
10
354.0
20
366.0
10
354.0
20
365.0
10
353.0
20
364.0
10
353.0
20
363.0
10
353.0
20
362.0
10
352.0
20
361.0
10
352.0
20
360.0
10
352.0
20
359.0
10
352.0
20
358.0
10
351.0
20
357.0
10
351.0
20
356.0
10
351.0
20
355.0
10
350.0
20
354.0
10
350.0
20
353.0
10
350.0
20
352.0
10
349.0
20
351.0
10
349.0
20
350.0
10
349.0
20
349.0
10
348.0
20
348.0
10
348.0
20
347.0
10
348.0
20
346.0
10
348.0
20
345.0
10
347.0
20
344.0
10
347.0
20
343.0
10
347.0
20
342.0
10
346.0
20
341.0
10
346.0
20
340.0
10
346.0
20
339.0
10
345.0
20
338.0
10
345.0
20
337.0
10
345.0
20
336.0
10
345.0
20
335.0
10
344.0
20
334.0
10
344.0
20
333.0
10
344.0
20
332.0
10
343.0
20
331.0
10
343.0
20
330.0
10
343.0
20
329.0
10
342.0
20
328.0
10
342.0
20
327.0
10
342.0
20
326.0
10
342.0
20
325.0
10
341.0
20
324.0
10
341.0
20
323.0
10
341.0
20
322.0
10
340.0
20
321.0
10
340.0
20
320.0
10
340.0
20
319.0
10
340.0
20
318.0
10
339.0
20
317.0
10
339.0
20
316.0
10
339.0
20
315.0
10
338.0
20
314.0
10
338.0
20
313.0
10
338.0
20
312.0
10
337.0
20
311.0
10
337.0
20
310.0
10
337.0
20
309.0
10
337.0
20
308.0
10
336.0
20
307.0
10
336.0
20
306.0
10
336.0
20
305.0
10
335.0
20
304.0
10
335.0
20
303.0
10
335.0
20
302.0
10
334.0
20
301.0
10
334.0
20
300.0
10
334.0
20
299.0
10
334.0
20
298.0
10
333.0
20
297.0
10
333.0
20
296.0
10
333.0
20
295.0
10
332.0
20
294.0
10
332.0
20
293.0
10
332.0
20
292.0
10
331.0
20
291.0
10
331.0
20
290.0
10
331.0
20
289.0
10
331.0
20
288.0
10
330.0
20
287.0
10
330.0
20
286.0
10
330.0
20
285.0
10
329.0
20
284.0
10
329.0
20
283.0
10
329.0
20
282.0
10
329.0
20
281.0
10
328.0
20
280.0
10
328.0
20
279.0
10
328.0
20
278.0
10
327.0
20
277.0
10
327.0
20
276.0
10
327.0
20
275.0
10
327.0
20
274.0
10
326.0
20
273.0
10
326.0
20
272.0
10
326.0
20
271.0
10
325.0
20
270.0
10
325.0
20
269.0
10
325.0
20
268.0
10
324.0
20
267.0
10
324.0
20
266.0
10
324.0
20
265.0
10
324.0
20
264.0
10
323.0
20
263.0
10
323.0
20
262.0
10
323.0
20
261.0
10
322.0
20
260.0
10
322.0
20
259.0
10
322.0
20
258.0
10
322.0
20
257.0
10
321.0
20
256.0
10
321.0
20
255.0
10
321.0
20
254.0
10
320.0
20
253.0
10
320.0
20
252.0
10
320.0
20
251.0
10
319.0
20
250.0
10
319.0
20
249.0
10
319.0
20
248.0
10
319.0
20
247.0
10
318.0
20
246.0
10
318.0
20
245.0
10
318.0
20
244.0
10
317.0
20
243.0
10
317.0
20
242.0
10
317.0
20
241.0
10
316.0
20
240.0
10
316.0
20
239.0
10
316.0
20
238.0
10
316.0
20
237.0
10
315.0
20
236.0
10
315.0
20
235.0
10
315.0
20
234.0
10
314.0
20
233.0
10
314.0
20
232.0
10
314.0
20
231.0
10
313.0
20
230.0
10
313.0
20
229.0
10
313.0
20
228.0
10
312.0
20
227.0
10
312.0
20
226.0
10
312.0
20
225.0
10
312.0
20
224.0
10
311.0
20
223.0
10
311.0
20
222.0
10
311.0
20
221.0
10
310.0
20
220.0
10
310.0
20
219.0
10
310.0
20
218.0
10
309.0
20
217.0
10
309.0
20
216.0
10
309.0
20
215.0
10
309.0
20
214.0
10
308.0
20
213.0
10
308.0
20
212.0
10
308.0
20
211.0
10
307.0
20
210.0
10
307.0
20
209.0
10
307.0
20
208.0
10
306.0
20
207.0
10
306.0
20
206.0
10
306.0
20
205.0
10
306.0
20
204.0
10
305.0
20
203.0
10
305.0
20
202.0
10
305.0
20
201.0
10
304.0
20
200.0
10
304.0
20
199.0
10
304.0
20
198.0
10
303.0
20
197.0
10
303.0
20
196.0
10
303.0
20
195.0
10
303.0
20
194.0
10
302.0
20
193.0
10
302.0
20
192.0
10
302.0
20
191.0
10
301.0
20
190.0
10
301.0
20
189.0
10
301.0
20
188.0
10
300.0
20
187.0
10
300.0
20
186.0
10
300.0
20
185.0
10
300.0
20
184.0
10
299.0
20
183.0
10
299.0
20
182.0
10
299.0
20
181.0
10
298.0
20
180.0
10
298.0
20
179.0
10
298.0
20
178.0
10
297.0
20
177.0
10
297.0
20
176.0
10
297.0
20
175.0
10
296.0
20
174.0
10
296.0
20
173.0
10
296.0
20
172.0
10
296.0
20
171.0
10
295.0
20
170.0
10
295.0
20
169.0
10
295.0
20
168.0
10
294.0
20
167.0
10
294.0
20
166.0
10
294.0
20
165.0
10
293.0
20
164.0
10
293.0
20
163.0
10
293.0
20
162.0
10
292.0
20
161.0
10
292.0
20
160.0
10
292.0
20
159.0
10
292.0
20
158.0
10
291.0
20
157.0
10
291.0
20
156.0
10
291.0
20
155.0
10
290.0
20
154.0
10
290.0
20
153.0
10
290.0
20
152.0
10
289.0
20
151.0
10
289.0
20
150.0
10
289.0
20
149.0
10
289.0
20
148.0
10
288.0
20
147.0
10
288.0
20
146.0
10
288.0
20
145.0
10
287.0
20
144.0
10
287.0
20
143.0
10
287.0
20
142.0
10
286.0
20
141.0
10
286.0
20
140.0
10
286.0
20
139.0
10
286.0
20
138.0
10
285.0
20
137.0
10
285.0
20
136.0
10
285.0
20
135.0
10
284.0
20
134.0
10
284.0
20
133.0
10
284.0
20
132.0
10
283.0
20
131.0
10
283.0
20
130.0
10
283.0
20
129.0
10
283.0
20
128.0
10
282.0
20
127.0
10
282.0
20
126.0
10
282.0
20
125.0
10
281.0
20
124.0
10
281.0
20
123.0
10
281.0
20
122.0
10
281.0
20
121.0
10
280.0
20
120.0
10
280.0
20
119.0
10
280.0
20
118.0
10
279.0
20
117.0
10
279.0
20
116.0
10
279.0
20
115.0
10
278.0
20
114.0
10
278.0
20
113.0
10
278.0
20
112.0
10
278.0
20
111.0
10
277.0
20
110.0
10
277.0
20
109.0
10
277.0
20
108.0
10
276.0
20
107.0
10
276.0
20
106.0
10
276.0
20
105.0
10
275.0
20
104.0
10
275.0
20
103.0
10
275.0
20
102.0
10
275.0
20
101.0
10
274.0
20
100.0
10
274.0
20
99.0
10
273.0
20
98.0
10
272.0
20
98.0
10
271.0
20
99.0
10
271.0
20
100.0
10
271.0
20
101.0
10
271.0
20
102.0
10
271.0
20
103.0
10
271.0
20
104.0
10
271.0
20
105.0
10
271.0
20
106.0
10
271.0
20
107.0
10
271.0
20
108.0
10
271.0
20
109.0
10
271.0
20
110.0
10
271.0
20
111.0
10
271.0
20
112.0
10
271.0
20
113.0
10
271.0
20
114.0
10
271.0
20
115.0
10
271.0
20
116.0
10
271.0
20
117.0
10
271.0
20
118.0
10
271.0
20
119.0
10
271.0
20
120.0
10
271.0
20
121.0
10
271.0
20
122.0
10
271.0
20
123.0
10
271.0
20
124.0
10
271.0
20
125.0
10
271.0
20
126.0
10
271.0
20
127.0
10
271.0
20
128.0
10
271.0
20
129.0
10
271.0
20
130.0
10
271.0
20
131.0
10
271.0
20
132.0
10
271.0
20
133.0
10
271.0
20
134.0
10
271.0
20
135.0
10
271.0
20
136.0
10
271.0
20
137.0
10
271.0
20
138.0
10
271.0
20
139.0
10
271.0
20
140.0
10
271.0
20
141.0
10
271.0
20
142.0
10
271.0
20
143.0
10
271.0
20
144.0
10
271.0
20
145.0
10
271.0
20
146.0
10
271.0
20
147.0
10
271.0
20
148.0
10
271.0
20
149.0
10
271.0
20
150.0
10
271.0
20
151.0
10
271.0
20
152.0
10
271.0
20
153.0
10
271.0
20
154.0
10
271.0
20
155.0
10
271.0
20
156.0
10
271.0
20
157.0
10
271.0
20
158.0
10
271.0
20
159.0
10
271.0
20
160.0
10
271.0
20
161.0
10
271.0
20
162.0
10
271.0
20
163.0
10
271.0
20
164.0
10
271.0
20
165.0
10
271.0
20
166.0
10
271.0
20
167.0
10
271.0
20
168.0
10
271.0
20
169.0
10
271.0
20
170.0
10
271.0
20
171.0
10
271.0
20
172.0
10
271.0
20
173.0
10
271.0
20
174.0
10
271.0
20
175.0
10
271.0
20
176.0
10
271.0
20
177.0
10
271.0
20
178.0
10
271.0
20
179.0
10
271.0
20
180.0
10
271.0
20
181.0
10
271.0
20
182.0
10
271.0
20
183.0
10
271.0
20
184.0
10
271.0
20
185.0
10
271.0
20
186.0
10
271.0
20
187.0
10
271.0
20
188.0
10
271.0
20
189.0
10
271.0
20
190.0
10
271.0
20
191.0
10
271.0
20
192.0
10
271.0
20
193.0
10
271.0
20
194.0
10
271.0
20
195.0
10
271.0
20
196.0
10
271.0
20
197.0
10
271.0
20
198.0
10
271.0
20
199.0
10
271.0
20
200.0
10
271.0
20
201.0
10
271.0
20
202.0
10
271.0
20
203.0
10
271.0
20
204.0
10
271.0
20
205.0
10
271.0
20
206.0
10
271.0
20
207.0
10
271.0
20
208.0
10
271.0
20
209.0
10
271.0
20
210.0
10
271.0
20
211.0
10
271.0
20
212.0
10
271.0
20
213.0
10
271.0
20
214.0
10
271.0
20
215.0
10
271.0
20
216.0
10
271.0
20
217.0
10
271.0
20
218.0
10
271.0
20
219.0
10
271.0
20
220.0
10
271.0
20
221.0
10
271.0
20
222.0
10
271.0
20
223.0
10
271.0
20
224.0
10
271.0
20
225.0
10
271.0
20
226.0
10
271.0
20
227.0
10
271.0
20
228.0
10
271.0
20
229.0
10
271.0
20
230.0
10
271.0
20
231.0
10
271.0
20
232.0
10
271.0
20
233.0
10
271.0
20
234.0
10
271.0
20
235.0
10
271.0
20
236.0
10
271.0
20
237.0
10
271.0
20
238.0
10
271.0
20
239.0
10
271.0
20
240.0
10
271.0
20
241.0
10
271.0
20
242.0
10
271.0
20
243.0
10
271.0
20
244.0
10
271.0
20
245.0
10
271.0
20
246.0
10
271.0
20
247.0
10
271.0
20
248.0
10
271.0
20
249.0
10
271.0
20
250.0
10
271.0
20
251.0
10
271.0
20
252.0
10
271.0
20
253.0
10
271.0
20
254.0
10
271.0
20
255.0
10
271.0
20
256.0
10
271.0
20
257.0
10
271.0
20
258.0
10
271.0
20
259.0
10
271.0
20
260.0
10
271.0
20
261.0
10
271.0
20
262.0
10
271.0
20
263.0
10
271.0
20
264.0
10
271.0
20
265.0
10
271.0
20
266.0
10
271.0
20
267.0
10
271.0
20
268.0
10
271.0
20
269.0
10
271.0
20
270.0
10
271.0
20
271.0
10
271.0
20
272.0
10
271.0
20
273.0
10
271.0
20
274.0
10
271.0
20
275.0
10
271.0
20
276.0
10
271.0
20
277.0
10
271.0
20
278.0
10
271.0
20
279.0
10
271.0
20
280.0
10
271.0
20
281.0
10
271.0
20
282.0
10
271.0
20
283.0
10
271.0
20
284.0
10
271.0
20
285.0
10
271.0
20
286.0
10
271.0
20
287.0
10
271.0
20
288.0
10
271.0
20
289.0
10
271.0
20
290.0
10
271.0
20
291.0
10
271.0
20
292.0
10
271.0
20
293.0
10
271.0
20
294.0
10
271.0
20
295.0
10
271.0
20
296.0
10
271.0
20
297.0
10
271.0
20
298.0
10
271.0
20
299.0
10
271.0
20
300.0
10
271.0
20
301.0
10
271.0
20
302.0
10
271.0
20
303.0
10
271.0
20
304.0
10
271.0
20
305.0
10
271.0
20
306.0
10
271.0
20
307.0
10
271.0
20
308.0
10
271.0
20
309.0
10
271.0
20
310.0
10
271.0
20
311.0
10
271.0
20
312.0
10
271.0
20
313.0
10
271.0
20
314.0
10
271.0
20
315.0
10
271.0
20
316.0
10
271.0
20
317.0
10
271.0
20
318.0
10
271.0
20
319.0
10
271.0
20
320.0
10
271.0
20
321.0
10
271.0
20
322.0
10
271.0
20
323.0
10
271.0
20
324.0
10
271.0
20
325.0
10
271.0
20
326.0
10
271.0
20
327.0
10
271.0
20
328.0
10
271.0
20
329.0
10
271.0
20
330.0
10
271.0
20
331.0
10
271.0
20
332.0
10
271.0
20
333.0
10
271.0
20
334.0
10
271.0
20
335.0
10
271.0
20
336.0
10
271.0
20
337.0
10
271.0
20
338.0
10
271.0
20
339.0
10
271.0
20
340.0
10
271.0
20
341.0
10
271.0
20
342.0
10
271.0
20
343.0
10
271.0
20
344.0
10
271.0
20
345.0
10
271.0
20
346.0
10
271.0
20
347.0
10
271.0
20
348.0
10
271.0
20
349.0
10
271.0
20
350.0
10
271.0
20
351.0
10
271.0
20
352.0
10
271.0
20
353.0
10
271.0
20
354.0
10
271.0
20
355.0
10
271.0
20
356.0
10
271.0
20
357.0
10
271.0
20
358.0
10
271.0
20
359.0
10
271.0
20
360.0
10
271.0
20
361.0
10
271.0
20
362.0
10
271.0
20
363.0
10
271.0
20
364.0
10
271.0
20
365.0
10
271.0
20
366.0
10
271.0
20
367.0
10
271.0
20
368.0
10
271.0
20
369.0
10
271.0
20
370.0
10
271.0
20
371.0
10
271.0
20
372.0
10
271.0
20
373.0
10
271.0
20
374.0
10
271.0
20
375.0
10
271.0
20
376.0
10
271.0
20
377.0
10
271.0
20
378.0
10
271.0
20
379.0
10
271.0
20
380.0
10
271.0
20
381.0
10
271.0
20
382.0
10
271.0
20
383.0
10
271.0
20
384.0
10
271.0
20
385.0
10
271.0
20
386.0
10
271.0
20
387.0
10
271.0
20
388.0
10
271.0
20
389.0
10
271.0
20
390.0
10
271.0
20
391.0
10
271.0
20
392.0
10
271.0
20
393.0
10
271.0
20
394.0
10
271.0
20
395.0
10
271.0
20
396.0
10
271.0
20
397.0
10
271.0
20
398.0
10
271.0
20
399.0
10
271.0
20
400.0
10
271.0
20
401.0
10
271.0
20
402.0
10
271.0
20
403.0
10
271.0
20
404.0
10
271.0
20
405.0
10
271.0
20
406.0
10
271.0
20
407.0
10
271.0
20
408.0
10
271.0
20
409.0
10
271.0
20
410.0
10
271.0
20
411.0
10
271.0
20
412.0
10
271.0
20
413.0
10
271.0
20
414.0
10
271.0
20
415.0
10
271.0
20
416.0
10
271.0
20
417.0
10
271.0
20
418.0
10
271.0
20
419.0
10
271.0
20
420.0
10
271.0
20
421.0
10
271.0
20
422.0
10
271.0
20
423.0
10
271.0
20
424.0
10
271.0
20
425.0
10
271.0
20
426.0
10
271.0
20
427.0
10
271.0
20
428.0
10
271.0
20
429.0
10
271.0
20
430.0
10
271.0
20
431.0
10
271.0
20
432.0
10
271.0
20
433.0
10
271.0
20
434.0
10
271.0
20
435.0
10
271.0
20
436.0
10
271.0
20
437.0
10
271.0
20
438.0
10
271.0
20
439.0
10
271.0
20
440.0
10
271.0
20
441.0
10
271.0
20
442.0
10
271.0
20
443.0
10
271.0
20
444.0
10
271.0
20
445.0
10
270.0
20
445.0
10
269.0
20
445.0
10
268.0
20
445.0
10
267.0
20
445.0
10
266.0
20
445.0
10
265.0
20
445.0
10
264.0
20
445.0
10
263.0
20
445.0
10
262.0
20
445.0
10
261.0
20
445.0
10
260.0
20
445.0
10
259.0
20
445.0
10
258.0
20
445.0
10
257.0
20
445.0
10
256.0
20
445.0
10
255.0
20
445.0
10
254.0
20
445.0
10
253.0
20
445.0
10
252.0
20
445.0
10
251.0
20
445.0
10
250.0
20
445.0
0
LWPOLYLINE
8
0
90
1685
70
1
10
17.0
20
445.0
10
17.0
20
444.0
10
18.0
20
443.0
10
18.0
20
442.0
10
19.0
20
441.0
10
19.0
20
440.0
10
19.0
20
439.0
10
20.0
20
438.0
10
20.0
20
437.0
10
21.0
20
436.0
10
21.0
20
435.0
10
22.0
20
434.0
10
22.0
20
433.0
10
23.0
20
432.0
10
23.0
20
431.0
10
24.0
20
430.0
10
24.0
20
429.0
10
24.0
20
428.0
10
25.0
20
427.0
10
25.0
20
426.0
10
26.0
20
425.0
10
26.0
20
424.0
10
27.0
20
423.0
10
27.0
20
422.0
10
28.0
20
421.0
10
28.0
20
420.0
10
29.0
20
419.0
10
29.0
20
418.0
10
29.0
20
417.0
10
30.0
20
416.0
10
30.0
20
415.0
10
31.0
20
414.0
10
31.0
20
413.0
10
32.0
20
412.0
10
32.0
20
411.0
10
33.0
20
410.0
10
33.0
20
409.0
10
33.0
20
408.0
10
34.0
20
407.0
10
34.0
20
406.0
10
35.0
20
405.0
10
35.0
20
404.0
10
36.0
20
403.0
10
36.0
20
402.0
10
37.0
20
401.0
10
37.0
20
400.0
10
37.0
20
399.0
10
38.0
20
398.0
10
38.0
20
397.0
10
39.0
20
396.0
10
39.0
20
395.0
10
40.0
20
394.0
10
40.0
20
393.0
10
40.0
20
392.0
10
41.0
20
391.0
10
41.0
20
390.0
10
42.0
20
389.0
10
42.0
20
388.0
10
43.0
20
387.0
10
43.0
20
386.0
10
44.0
20
385.0
10
44.0
20
384.0
10
44.0
20
383.0
10
45.0
20
382.0
10
45.0
20
381.0
10
46.0
20
380.0
10
46.0
20
379.0
10
47.0
20
378.0
10
47.0
20
377.0
10
47.0
20
376.0
10
48.0
20
375.0
10
48.0
20
374.0
10
49.0
20
373.0
10
49.0
20
372.0
10
50.0
20
371.0
10
50.0
20
370.0
10
51.0
20
369.0
10
51.0
20
368.0
10
52.0
20
367.0
10
52.0
20
366.0
10
52.0
20
365.0
10
53.0
20
364.0
10
53.0
20
363.0
10
54.0
20
362.0
10
54.0
20
361.0
10
55.0
20
360.0
10
55.0
20
359.0
10
56.0
20
358.0
10
56.0
20
357.0
10
57.0
20
356.0
10
57.0
20
355.0
10
57.0
20
354.0
10
58.0
20
353.0
10
58.0
20
352.0
10
59.0
20
351.0
10
59.0
20
350.0
10
60.0
20
349.0
10
60.0
20
348.0
10
61.0
20
347.0
10
61.0
20
346.0
10
62.0
20
345.0
10
62.0
20
344.0
10
62.0
20
343.0
10
63.0
20
342.0
10
63.0
20
341.0
10
64.0
20
340.0
10
64.0
20
339.0
10
65.0
20
338.0
10
65.0
20
337.0
10
66.0
20
336.0
10
66.0
20
335.0
10
67.0
20
334.0
10
67.0
20
333.0
10
67.0
20
332.0
10
68.0
20
331.0
10
68.0
20
330.0
10
69.0
20
329.0
10
69.0
20
328.0
10
70.0
20
327.0
10
70.0
20
326.0
10
71.0
20
325.0
10
71.0
20
324.0
10
72.0
20
323.0
10
72.0
20
322.0
10
72.0
20
321.0
10
73.0
20
320.0
10
73.0
20
319.0
10
74.0
20
318.0
10
74.0
20
317.0
10
75.0
20
316.0
10
75.0
20
315.0
10
76.0
20
314.0
10
76.0
20
313.0
10
77.0
20
312.0
10
77.0
20
311.0
10
77.0
20
310.0
10
78.0
20
309.0
10
78.0
20
308.0
10
79.0
20
307.0
10
79.0
20
306.0
10
80.0
20
305.0
10
80.0
20
304.0
10
81.0
20
303.0
10
81.0
20
302.0
10
82.0
20
301.0
10
82.0
20
300.0
10
82.0
20
299.0
10
83.0
20
298.0
10
83.0
20
297.0
10
84.0
20
296.0
10
84.0
20
295.0
10
85.0
20
294.0
10
85.0
20
293.0
10
86.0
20
292.0
10
86.0
20
291.0
10
86.0
20
290.0
10
87.0
20
289.0
10
87.0
20
288.0
10
88.0
20
287.0
10
88.0
20
286.0
10
89.0
20
285.0
10
89.0
20
284.0
10
90.0
20
283.0
10
90.0
20
282.0
10
91.0
20
281.0
10
91.0
20
280.0
10
91.0
20
279.0
10
92.0
20
278.0
10
92.0
20
277.0
10
93.0
20
276.0
10
93.0
20
275.0
10
94.0
20
274.0
10
94.0
20
273.0
10
95.0
20
272.0
10
95.0
20
271.0
10
95.0
20
270.0
10
96.0
20
269.0
10
96.0
20
268.0
10
97.0
20
267.0
10
97.0
20
266.0
10
98.0
20
265.0
10
98.0
20
264.0
10
98.0
20
263.0
10
99.0
20
262.0
10
99.0
20
261.0
10
100.0
20
260.0
10
100.0
20
259.0
10
101.0
20
258.0
10
101.0
20
257.0
10
101.0
20
256.0
10
102.0
20
255.0
10
102.0
20
254.0
10
103.0
20
253.0
10
103.0
20
252.0
10
104.0
20
251.0
10
104.0
20
250.0
10
105.0
20
249.0
10
105.0
20
248.0
10
105.0
20
247.0
10
106.0
20
246.0
10
106.0
20
245.0
10
107.0
20
244.0
10
107.0
20
243.0
10
108.0
20
242.0
10
108.0
20
241.0
10
109.0
20
240.0
10
109.0
20
239.0
10
110.0
20
238.0
10
110.0
20
237.0
10
110.0
20
236.0
10
111.0
20
235.0
10
111.0
20
234.0
10
112.0
20
233.0
10
112.0
20
232.0
10
113.0
20
231.0
10
113.0
20
230.0
10
114.0
20
229.0
10
114.0
20
228.0
10
115.0
20
227.0
10
115.0
20
226.0
10
115.0
20
225.0
10
116.0
20
224.0
10
116.0
20
223.0
10
117.0
20
222.0
10
117.0
20
221.0
10
118.0
20
220.0
10
118.0
20
219.0
10
119.0
20
218.0
10
119.0
20
217.0
10
120.0
20
216.0
10
120.0
20
215.0
10
120.0
20
214.0
10
121.0
20
213.0
10
121.0
20
212.0
10
122.0
20
211.0
10
122.0
20
210.0
10
123.0
20
209.0
10
123.0
20
208.0
10
124.0
20
207.0
10
124.0
20
206.0
10
125.0
20
205.0
10
125.0
20
204.0
10
125.0
20
203.0
10
126.0
20
202.0
10
126.0
20
201.0
10
127.0
20
200.0
10
127.0
20
199.0
10
128.0
20
198.0
10
128.0
20
197.0
10
129.0
20
196.0
10
129.0
20
195.0
10
129.0
20
194.0
10
130.0
20
193.0
10
130.0
20
192.0
10
131.0
20
191.0
10
131.0
20
190.0
10
132.0
20
189.0
10
132.0
20
188.0
10
133.0
20
187.0
10
133.0
20
186.0
10
134.0
20
185.0
10
134.0
20
184.0
10
135.0
20
183.0
10
135.0
20
182.0
10
135.0
20
181.0
10
136.0
20
180.0
10
136.0
20
179.0
10
137.0
20
178.0
10
137.0
20
177.0
10
138.0
20
176.0
10
138.0
20
175.0
10
139.0
20
174.0
10
139.0
20
173.0
10
139.0
20
172.0
10
140.0
20
171.0
10
140.0
20
170.0
10
141.0
20
169.0
10
141.0
20
168.0
10
142.0
20
167.0
10
142.0
20
166.0
10
143.0
20
165.0
10
143.0
20
164.0
10
144.0
20
163.0
10
144.0
20
162.0
10
144.0
20
161.0
10
145.0
20
160.0
10
145.0
20
159.0
10
146.0
20
158.0
10
146.0
20
157.0
10
147.0
20
156.0
10
147.0
20
155.0
10
148.0
20
154.0
10
148.0
20
153.0
10
149.0
20
152.0
10
149.0
20
151.0
10
149.0
20
150.0
10
150.0
20
149.0
10
150.0
20
148.0
10
151.0
20
147.0
10
151.0
20
146.0
10
152.0
20
145.0
10
152.0
20
144.0
10
152.0
20
143.0
10
153.0
20
142.0
10
153.0
20
141.0
10
154.0
20
140.0
10
154.0
20
139.0
10
155.0
20
138.0
10
155.0
20
137.0
10
156.0
20
136.0
10
156.0
20
135.0
10
156.0
20
134.0
10
157.0
20
133.0
10
157.0
20
132.0
10
158.0
20
131.0
10
158.0
20
130.0
10
159.0
20
129.0
10
159.0
20
128.0
10
159.0
20
127.0
10
160.0
20
126.0
10
160.0
20
125.0
10
161.0
20
124.0
10
161.0
20
123.0
10
162.0
20
122.0
10
162.0
20
121.0
10
163.0
20
120.0
10
163.0
20
119.0
10
163.0
20
118.0
10
164.0
20
117.0
10
164.0
20
116.0
10
165.0
20
115.0
10
165.0
20
114.0
10
166.0
20
113.0
10
166.0
20
112.0
10
167.0
20
111.0
10
167.0
20
110.0
10
168.0
20
109.0
10
168.0
20
108.0
10
168.0
20
107.0
10
169.0
20
106.0
10
169.0
20
105.0
10
170.0
20
104.0
10
170.0
20
103.0
10
171.0
20
102.0
10
171.0
20
101.0
10
172.0
20
100.0
10
172.0
20
99.0
10
173.0
20
98.0
10
173.0
20
97.0
10
173.0
20
96.0
10
174.0
20
95.0
10
174.0
20
94.0
10
175.0
20
93.0
10
175.0
20
92.0
10
176.0
20
91.0
10
176.0
20
90.0
10
177.0
20
89.0
10
177.0
20
88.0
10
178.0
20
87.0
10
178.0
20
86.0
10
178.0
20
85.0
10
179.0
20
84.0
10
179.0
20
83.0
10
180.0
20
82.0
10
180.0
20
81.0
10
181.0
20
80.0
10
181.0
20
79.0
10
182.0
20
78.0
10
182.0
20
77.0
10
182.0
20
76.0
10
183.0
20
75.0
10
183.0
20
74.0
10
184.0
20
73.0
10
184.0
20
72.0
10
185.0
20
71.0
10
185.0
20
70.0
10
186.0
20
69.0
10
186.0
20
68.0
10
187.0
20
67.0
10
187.0
20
66.0
10
188.0
20
65.0
10
188.0
20
64.0
10
188.0
20
63.0
10
189.0
20
62.0
10
189.0
20
61.0
10
190.0
20
60.0
10
190.0
20
59.0
10
191.0
20
58.0
10
191.0
20
57.0
10
192.0
20
56.0
10
192.0
20
55.0
10
192.0
20
54.0
10
193.0
20
53.0
10
193.0
20
52.0
10
194.0
20
51.0
10
194.0
20
50.0
10
195.0
20
49.0
10
195.0
20
48.0
10
196.0
20
47.0
10
196.0
20
46.0
10
197.0
20
45.0
10
197.0
20
44.0
10
197.0
20
43.0
10
198.0
20
42.0
10
198.0
20
41.0
10
199.0
20
40.0
10
199.0
20
39.0
10
200.0
20
38.0
10
200.0
20
37.0
10
201.0
20
36.0
10
201.0
20
35.0
10
202.0
20
34.0
10
202.0
20
33.0
10
202.0
20
32.0
10
203.0
20
31.0
10
203.0
20
30.0
10
204.0
20
29.0
10
204.0
20
28.0
10
205.0
20
27.0
10
205.0
20
26.0
10
206.0
20
25.0
10
206.0
20
24.0
10
207.0
20
23.0
10
207.0
20
22.0
10
207.0
20
21.0
10
208.0
20
20.0
10
208.0
20
19.0
10
209.0
20
18.0
10
209.0
20
17.0
10
210.0
20
16.0
10
210.0
20
15.0
10
211.0
20
15.0
10
212.0
20
15.0
10
213.0
20
15.0
10
214.0
20
15.0
10
215.0
20
15.0
10
216.0
20
15.0
10
217.0
20
15.0
10
218.0
20
15.0
10
219.0
20
15.0
10
220.0
20
15.0
10
221.0
20
15.0
10
222.0
20
15.0
10
223.0
20
15.0
10
224.0
20
15.0
10
225.0
20
15.0
10
226.0
20
15.0
10
227.0
20
15.0
10
228.0
20
15.0
10
229.0
20
15.0
10
230.0
20
15.0
10
231.0
20
15.0
10
232.0
20
15.0
10
232.0
20
16.0
10
232.0
20
17.0
10
232.0
20
18.0
10
232.0
20
19.0
10
232.0
20
20.0
10
232.0
20
21.0
10
232.0
20
22.0
10
232.0
20
23.0
10
232.0
20
24.0
10
232.0
20
25.0
10
232.0
20
26.0
10
232.0
20
27.0
10
232.0
20
28.0
10
232.0
20
29.0
10
232.0
20
30.0
10
232.0
20
31.0
10
232.0
20
32.0
10
232.0
20
33.0
10
232.0
20
34.0
10
232.0
20
35.0
10
232.0
20
36.0
10
232.0
20
37.0
10
232.0
20
38.0
10
232.0
20
39.0
10
232.0
20
40.0
10
232.0
20
41.0
10
232.0
20
42.0
10
232.0
20
43.0
10
232.0
20
44.0
10
232.0
20
45.0
10
232.0
20
46.0
10
232.0
20
47.0
10
232.0
20
48.0
10
232.0
20
49.0
10
232.0
20
50.0
10
232.0
20
51.0
10
232.0
20
52.0
10
232.0
20
53.0
10
232.0
20
54.0
10
232.0
20
55.0
10
232.0
20
56.0
10
232.0
20
57.0
10
232.0
20
58.0
10
232.0
20
59.0
10
232.0
20
60.0
10
232.0
20
61.0
10
232.0
20
62.0
10
232.0
20
63.0
10
232.0
20
64.0
10
232.0
20
65.0
10
232.0
20
66.0
10
232.0
20
67.0
10
232.0
20
68.0
10
232.0
20
69.0
10
232.0
20
70.0
10
232.0
20
71.0
10
232.0
20
72.0
10
232.0
20
73.0
10
232.0
20
74.0
10
232.0
20
75.0
10
232.0
20
76.0
10
232.0
20
77.0
10
232.0
20
78.0
10
232.0
20
79.0
10
232.0
20
80.0
10
232.0
20
81.0
10
232.0
20
82.0
10
232.0
20
83.0
10
232.0
20
84.0
10
232.0
20
85.0
10
232.0
20
86.0
10
232.0
20
87.0
10
232.0
20
88.0
10
232.0
20
89.0
10
232.0
20
90.0
10
232.0
20
91.0
10
232.0
20
92.0
10
232.0
20
93.0
10
232.0
20
94.0
10
232.0
20
95.0
10
232.0
20
96.0
10
232.0
20
97.0
10
232.0
20
98.0
10
232.0
20
99.0
10
232.0
20
100.0
10
232.0
20
101.0
10
232.0
20
102.0
10
232.0
20
103.0
10
232.0
20
104.0
10
232.0
20
105.0
10
232.0
20
106.0
10
232.0
20
107.0
10
232.0
20
108.0
10
232.0
20
109.0
10
232.0
20
110.0
10
232.0
20
111.0
10
232.0
20
112.0
10
232.0
20
113.0
10
232.0
20
114.0
10
232.0
20
115.0
10
232.0
20
116.0
10
232.0
20
117.0
10
232.0
20
118.0
10
232.0
20
119.0
10
232.0
20
120.0
10
232.0
20
121.0
10
232.0
20
122.0
10
232.0
20
123.0
10
232.0
20
124.0
10
232.0
20
125.0
10
232.0
20
126.0
10
232.0
20
127.0
10
232.0
20
128.0
10
232.0
20
129.0
10
232.0
20
130.0
10
232.0
20
131.0
10
232.0
20
132.0
10
232.0
20
133.0
10
232.0
20
134.0
10
232.0
20
135.0
10
232.0
20
136.0
10
232.0
20
137.0
10
232.0
20
138.0
10
232.0
20
139.0
10
232.0
20
140.0
10
232.0
20
141.0
10
232.0
20
142.0
10
232.0
20
143.0
10
232.0
20
144.0
10
232.0
20
145.0
10
232.0
20
146.0
10
232.0
20
147.0
10
232.0
20
148.0
10
232.0
20
149.0
10
232.0
20
150.0
10
232.0
20
151.0
10
232.0
20
152.0
10
232.0
20
153.0
10
232.0
20
154.0
10
232.0
20
155.0
10
232.0
20
156.0
10
232.0
20
157.0
10
232.0
20
158.0
10
232.0
20
159.0
10
232.0
20
160.0
10
232.0
20
161.0
10
232.0
20
162.0
10
232.0
20
163.0
10
232.0
20
164.0
10
232.0
20
165.0
10
232.0
20
166.0
10
232.0
20
167.0
10
232.0
20
168.0
10
232.0
20
169.0
10
232.0
20
170.0
10
232.0
20
171.0
10
232.0
20
172.0
10
232.0
20
173.0
10
232.0
20
174.0
10
232.0
20
175.0
10
232.0
20
176.0
10
232.0
20
177.0
10
232.0
20
178.0
10
232.0
20
179.0
10
232.0
20
180.0
10
232.0
20
181.0
10
232.0
20
182.0
10
232.0
20
183.0
10
232.0
20
184.0
10
232.0
20
185.0
10
232.0
20
186.0
10
232.0
20
187.0
10
232.0
20
188.0
10
232.0
20
189.0
10
232.0
20
190.0
10
232.0
20
191.0
10
232.0
20
192.0
10
232.0
20
193.0
10
232.0
20
194.0
10
232.0
20
195.0
10
232.0
20
196.0
10
232.0
20
197.0
10
232.0
20
198.0
10
232.0
20
199.0
10
232.0
20
200.0
10
232.0
20
201.0
10
232.0
20
202.0
10
232.0
20
203.0
10
232.0
20
204.0
10
232.0
20
205.0
10
232.0
20
206.0
10
232.0
20
207.0
10
232.0
20
208.0
10
232.0
20
209.0
10
232.0
20
210.0
10
232.0
20
211.0
10
232.0
20
212.0
10
232.0
20
213.0
10
232.0
20
214.0
10
232.0
20
215.0
10
232.0
20
216.0
10
232.0
20
217.0
10
232.0
20
218.0
10
232.0
20
219.0
10
232.0
20
220.0
10
232.0
20
221.0
10
232.0
20
222.0
10
232.0
20
223.0
10
232.0
20
224.0
10
232.0
20
225.0
10
232.0
20
226.0
10
232.0
20
227.0
10
232.0
20
228.0
10
232.0
20
229.0
10
232.0
20
230.0
10
232.0
20
231.0
10
232.0
20
232.0
10
232.0
20
233.0
10
232.0
20
234.0
10
232.0
20
235.0
10
232.0
20
236.0
10
232.0
20
237.0
10
232.0
20
238.0
10
232.0
20
239.0
10
232.0
20
240.0
10
232.0
20
241.0
10
232.0
20
242.0
10
232.0
20
243.0
10
232.0
20
244.0
10
232.0
20
245.0
10
232.0
20
246.0
10
232.0
20
247.0
10
232.0
20
248.0
10
232.0
20
249.0
10
232.0
20
250.0
10
232.0
20
251.0
10
232.0
20
252.0
10
232.0
20
253.0
10
232.0
20
254.0
10
232.0
20
255.0
10
232.0
20
256.0
10
232.0
20
257.0
10
232.0
20
258.0
10
232.0
20
259.0
10
232.0
20
260.0
10
232.0
20
261.0
10
232.0
20
262.0
10
232.0
20
263.0
10
232.0
20
264.0
10
232.0
20
265.0
10
232.0
20
266.0
10
232.0
20
267.0
10
232.0
20
268.0
10
232.0
20
269.0
10
232.0
20
270.0
10
232.0
20
271.0
10
232.0
20
272.0
10
232.0
20
273.0
10
232.0
20
274.0
10
232.0
20
275.0
10
232.0
20
276.0
10
232.0
20
277.0
10
232.0
20
278.0
10
232.0
20
279.0
10
232.0
20
280.0
10
232.0
20
281.0
10
232.0
20
282.0
10
232.0
20
283.0
10
232.0
20
284.0
10
232.0
20
285.0
10
232.0
20
286.0
10
232.0
20
287.0
10
232.0
20
288.0
10
232.0
20
289.0
10
232.0
20
290.0
10
232.0
20
291.0
10
232.0
20
292.0
10
232.0
20
293.0
10
232.0
20
294.0
10
232.0
20
295.0
10
232.0
20
296.0
10
232.0
20
297.0
10
232.0
20
298.0
10
232.0
20
299.0
10
232.0
20
300.0
10
232.0
20
301.0
10
232.0
20
302.0
10
232.0
20
303.0
10
232.0
20
304.0
10
232.0
20
305.0
10
232.0
20
306.0
10
232.0
20
307.0
10
232.0
20
308.0
10
232.0
20
309.0
10
232.0
20
310.0
10
232.0
20
311.0
10
232.0
20
312.0
10
232.0
20
313.0
10
232.0
20
314.0
10
232.0
20
315.0
10
232.0
20
316.0
10
232.0
20
317.0
10
232.0
20
318.0
10
232.0
20
319.0
10
232.0
20
320.0
10
232.0
20
321.0
10
232.0
20
322.0
10
232.0
20
323.0
10
232.0
20
324.0
10
232.0
20
325.0
10
232.0
20
326.0
10
232.0
20
327.0
10
232.0
20
328.0
10
232.0
20
329.0
10
232.0
20
330.0
10
232.0
20
331.0
10
232.0
20
332.0
10
232.0
20
333.0
10
232.0
20
334.0
10
232.0
20
335.0
10
232.0
20
336.0
10
232.0
20
337.0
10
232.0
20
338.0
10
232.0
20
339.0
10
232.0
20
340.0
10
232.0
20
341.0
10
232.0
20
342.0
10
232.0
20
343.0
10
232.0
20
344.0
10
232.0
20
345.0
10
232.0
20
346.0
10
232.0
20
347.0
10
232.0
20
348.0
10
232.0
20
349.0
10
232.0
20
350.0
10
232.0
20
351.0
10
232.0
20
352.0
10
232.0
20
353.0
10
232.0
20
354.0
10
232.0
20
355.0
10
232.0
20
356.0
10
232.0
20
357.0
10
232.0
20
358.0
10
232.0
20
359.0
10
232.0
20
360.0
10
232.0
20
361.0
10
232.0
20
362.0
10
232.0
20
363.0
10
232.0
20
364.0
10
232.0
20
365.0
10
232.0
20
366.0
10
232.0
20
367.0
10
232.0
20
368.0
10
232.0
20
369.0
10
232.0
20
370.0
10
232.0
20
371.0
10
232.0
20
372.0
10
232.0
20
373.0
10
232.0
20
374.0
10
232.0
20
375.0
10
232.0
20
376.0
10
232.0
20
377.0
10
232.0
20
378.0
10
232.0
20
379.0
10
232.0
20
380.0
10
232.0
20
381.0
10
232.0
20
382.0
10
232.0
20
383.0
10
232.0
20
384.0
10
232.0
20
385.0
10
232.0
20
386.0
10
232.0
20
387.0
10
232.0
20
388.0
10
232.0
20
389.0
10
232.0
20
390.0
10
232.0
20
391.0
10
232.0
20
392.0
10
232.0
20
393.0
10
232.0
20
394.0
10
232.0
20
395.0
10
232.0
20
396.0
10
232.0
20
397.0
10
232.0
20
398.0
10
232.0
20
399.0
10
232.0
20
400.0
10
232.0
20
401.0
10
232.0
20
402.0
10
232.0
20
403.0
10
232.0
20
404.0
10
232.0
20
405.0
10
232.0
20
406.0
10
232.0
20
407.0
10
232.0
20
408.0
10
232.0
20
409.0
10
232.0
20
410.0
10
232.0
20
411.0
10
232.0
20
412.0
10
232.0
20
413.0
10
232.0
20
414.0
10
232.0
20
415.0
10
232.0
20
416.0
10
232.0
20
417.0
10
232.0
20
418.0
10
232.0
20
419.0
10
232.0
20
420.0
10
232.0
20
421.0
10
232.0
20
422.0
10
232.0
20
423.0
10
232.0
20
424.0
10
232.0
20
425.0
10
232.0
20
426.0
10
232.0
20
427.0
10
232.0
20
428.0
10
232.0
20
429.0
10
232.0
20
430.0
10
232.0
20
431.0
10
232.0
20
432.0
10
232.0
20
433.0
10
232.0
20
434.0
10
232.0
20
435.0
10
232.0
20
436.0
10
232.0
20
437.0
10
232.0
20
438.0
10
232.0
20
439.0
10
232.0
20
440.0
10
232.0
20
441.0
10
232.0
20
442.0
10
232.0
20
443.0
10
232.0
20
444.0
10
232.0
20
445.0
10
231.0
20
445.0
10
230.0
20
445.0
10
229.0
20
445.0
10
228.0
20
445.0
10
227.0
20
445.0
10
226.0
20
445.0
10
225.0
20
445.0
10
224.0
20
445.0
10
223.0
20
445.0
10
222.0
20
445.0
10
221.0
20
445.0
10
220.0
20
445.0
10
219.0
20
445.0
10
218.0
20
445.0
10
217.0
20
445.0
10
216.0
20
445.0
10
215.0
20
445.0
10
214.0
20
445.0
10
213.0
20
445.0
10
212.0
20
445.0
10
211.0
20
445.0
10
210.0
20
445.0
10
210.0
20
444.0
10
210.0
20
443.0
10
210.0
20
442.0
10
210.0
20
441.0
10
210.0
20
440.0
10
210.0
20
439.0
10
210.0
20
438.0
10
210.0
20
437.0
10
210.0
20
436.0
10
210.0
20
435.0
10
210.0
20
434.0
10
210.0
20
433.0
10
210.0
20
432.0
10
210.0
20
431.0
10
210.0
20
430.0
10
210.0
20
429.0
10
210.0
20
428.0
10
210.0
20
427.0
10
210.0
20
426.0
10
210.0
20
425.0
10
210.0
20
424.0
10
210.0
20
423.0
10
210.0
20
422.0
10
210.0
20
421.0
10
210.0
20
420.0
10
210.0
20
419.0
10
210.0
20
418.0
10
210.0
20
417.0
10
210.0
20
416.0
10
210.0
20
415.0
10
210.0
20
414.0
10
210.0
20
413.0
10
210.0
20
412.0
10
210.0
20
411.0
10
210.0
20
410.0
10
210.0
20
409.0
10
210.0
20
408.0
10
210.0
20
407.0
10
210.0
20
406.0
10
210.0
20
405.0
10
210.0
20
404.0
10
210.0
20
403.0
10
210.0
20
402.0
10
210.0
20
401.0
10
210.0
20
400.0
10
210.0
20
399.0
10
210.0
20
398.0
10
210.0
20
397.0
10
210.0
20
396.0
10
210.0
20
395.0
10
210.0
20
394.0
10
210.0
20
393.0
10
210.0
20
392.0
10
210.0
20
391.0
10
210.0
20
390.0
10
210.0
20
389.0
10
210.0
20
388.0
10
210.0
20
387.0
10
210.0
20
386.0
10
210.0
20
385.0
10
210.0
20
384.0
10
210.0
20
383.0
10
210.0
20
382.0
10
210.0
20
381.0
10
210.0
20
380.0
10
210.0
20
379.0
10
210.0
20
378.0
10
210.0
20
377.0
10
210.0
20
376.0
10
210.0
20
375.0
10
210.0
20
374.0
10
210.0
20
373.0
10
210.0
20
372.0
10
210.0
20
371.0
10
210.0
20
370.0
10
210.0
20
369.0
10
210.0
20
368.0
10
210.0
20
367.0
10
210.0
20
366.0
10
210.0
20
365.0
10
210.0
20
364.0
10
210.0
20
363.0
10
210.0
20
362.0
10
210.0
20
361.0
10
210.0
20
360.0
10
210.0
20
359.0
10
210.0
20
358.0
10
210.0
20
357.0
10
210.0
20
356.0
10
210.0
20
355.0
10
210.0
20
354.0
10
210.0
20
353.0
10
210.0
20
352.0
10
210.0
20
351.0
10
210.0
20
350.0
10
210.0
20
349.0
10
210.0
20
348.0
10
210.0
20
347.0
10
210.0
20
346.0
10
210.0
20
345.0
10
210.0
20
344.0
10
210.0
20
343.0
10
210.0
20
342.0
10
210.0
20
341.0
10
210.0
20
340.0
10
210.0
20
339.0
10
210.0
20
338.0
10
210.0
20
337.0
10
210.0
20
336.0
10
210.0
20
335.0
10
210.0
20
334.0
10
210.0
20
333.0
10
210.0
20
332.0
10
210.0
20
331.0
10
210.0
20
330.0
10
210.0
20
329.0
10
210.0
20
328.0
10
210.0
20
327.0
10
210.0
20
326.0
10
210.0
20
325.0
10
210.0
20
324.0
10
210.0
20
323.0
10
210.0
20
322.0
10
210.0
20
321.0
10
210.0
20
320.0
10
210.0
20
319.0
10
210.0
20
318.0
10
210.0
20
317.0
10
210.0
20
316.0
10
210.0
20
315.0
10
210.0
20
314.0
10
210.0
20
313.0
10
210.0
20
312.0
10
210.0
20
311.0
10
210.0
20
310.0
10
210.0
20
309.0
10
210.0
20
308.0
10
210.0
20
307.0
10
210.0
20
306.0
10
210.0
20
305.0
10
210.0
20
304.0
10
210.0
20
303.0
10
210.0
20
302.0
10
210.0
20
301.0
10
210.0
20
300.0
10
210.0
20
299.0
10
210.0
20
298.0
10
210.0
20
297.0
10
210.0
20
296.0
10
210.0
20
295.0
10
210.0
20
294.0
10
210.0
20
293.0
10
210.0
20
292.0
10
210.0
20
291.0
10
210.0
20
290.0
10
210.0
20
289.0
10
210.0
20
288.0
10
210.0
20
287.0
10
210.0
20
286.0
10
210.0
20
285.0
10
210.0
20
284.0
10
210.0
20
283.0
10
210.0
20
282.0
10
210.0
20
281.0
10
210.0
20
280.0
10
210.0
20
279.0
10
210.0
20
278.0
10
210.0
20
277.0
10
210.0
20
276.0
10
210.0
20
275.0
10
210.0
20
274.0
10
210.0
20
273.0
10
210.0
20
272.0
10
210.0
20
271.0
10
210.0
20
270.0
10
210.0
20
269.0
10
210.0
20
268.0
10
210.0
20
267.0
10
210.0
20
266.0
10
210.0
20
265.0
10
210.0
20
264.0
10
210.0
20
263.0
10
210.0
20
262.0
10
210.0
20
261.0
10
210.0
20
260.0
10
210.0
20
259.0
10
210.0
20
258.0
10
210.0
20
257.0
10
210.0
20
256.0
10
210.0
20
255.0
10
210.0
20
254.0
10
210.0
20
253.0
10
210.0
20
252.0
10
210.0
20
251.0
10
210.0
20
250.0
10
210.0
20
249.0
10
210.0
20
248.0
10
210.0
20
247.0
10
210.0
20
246.0
10
210.0
20
245.0
10
210.0
20
244.0
10
210.0
20
243.0
10
210.0
20
242.0
10
210.0
20
241.0
10
210.0
20
240.0
10
210.0
20
239.0
10
210.0
20
238.0
10
210.0
20
237.0
10
210.0
20
236.0
10
210.0
20
235.0
10
210.0
20
234.0
10
210.0
20
233.0
10
210.0
20
232.0
10
210.0
20
231.0
10
210.0
20
230.0
10
210.0
20
229.0
10
210.0
20
228.0
10
210.0
20
227.0
10
210.0
20
226.0
10
210.0
20
225.0
10
210.0
20
224.0
10
210.0
20
223.0
10
210.0
20
222.0
10
210.0
20
221.0
10
210.0
20
220.0
10
210.0
20
219.0
10
210.0
20
218.0
10
210.0
20
217.0
10
210.0
20
216.0
10
210.0
20
215.0
10
210.0
20
214.0
10
210.0
20
213.0
10
210.0
20
212.0
10
210.0
20
211.0
10
210.0
20
210.0
10
210.0
20
209.0
10
210.0
20
208.0
10
210.0
20
207.0
10
210.0
20
206.0
10
210.0
20
205.0
10
210.0
20
204.0
10
210.0
20
203.0
10
210.0
20
202.0
10
210.0
20
201.0
10
210.0
20
200.0
10
210.0
20
199.0
10
210.0
20
198.0
10
210.0
20
197.0
10
210.0
20
196.0
10
210.0
20
195.0
10
210.0
20
194.0
10
210.0
20
193.0
10
210.0
20
192.0
10
210.0
20
191.0
10
210.0
20
190.0
10
210.0
20
189.0
10
210.0
20
188.0
10
210.0
20
187.0
10
210.0
20
186.0
10
210.0
20
185.0
10
210.0
20
184.0
10
210.0
20
183.0
10
210.0
20
182.0
10
210.0
20
181.0
10
210.0
20
180.0
10
210.0
20
179.0
10
210.0
20
178.0
10
210.0
20
177.0
10
210.0
20
176.0
10
210.0
20
175.0
10
210.0
20
174.0
10
210.0
20
173.0
10
210.0
20
172.0
10
210.0
20
171.0
10
210.0
20
170.0
10
210.0
20
169.0
10
210.0
20
168.0
10
210.0
20
167.0
10
210.0
20
166.0
10
210.0
20
165.0
10
210.0
20
164.0
10
210.0
20
163.0
10
210.0
20
162.0
10
210.0
20
161.0
10
210.0
20
160.0
10
210.0
20
159.0
10
210.0
20
158.0
10
210.0
20
157.0
10
210.0
20
156.0
10
210.0
20
155.0
10
210.0
20
154.0
10
210.0
20
153.0
10
210.0
20
152.0
10
210.0
20
151.0
10
210.0
20
150.0
10
210.0
20
149.0
10
210.0
20
148.0
10
210.0
20
147.0
10
210.0
20
146.0
10
210.0
20
145.0
10
210.0
20
144.0
10
210.0
20
143.0
10
210.0
20
142.0
10
210.0
20
141.0
10
210.0
20
140.0
10
210.0
20
139.0
10
210.0
20
138.0
10
210.0
20
137.0
10
210.0
20
136.0
10
210.0
20
135.0
10
210.0
20
134.0
10
210.0
20
133.0
10
210.0
20
132.0
10
210.0
20
131.0
10
210.0
20
130.0
10
210.0
20
129.0
10
210.0
20
128.0
10
210.0
20
127.0
10
210.0
20
126.0
10
210.0
20
125.0
10
210.0
20
124.0
10
210.0
20
123.0
10
210.0
20
122.0
10
210.0
20
121.0
10
210.0
20
120.0
10
210.0
20
119.0
10
210.0
20
118.0
10
210.0
20
117.0
10
210.0
20
116.0
10
210.0
20
115.0
10
210.0
20
114.0
10
210.0
20
113.0
10
210.0
20
112.0
10
210.0
20
111.0
10
210.0
20
110.0
10
210.0
20
109.0
10
210.0
20
108.0
10
210.0
20
107.0
10
210.0
20
106.0
10
210.0
20
105.0
10
210.0
20
104.0
10
210.0
20
103.0
10
210.0
20
102.0
10
210.0
20
101.0
10
210.0
20
100.0
10
210.0
20
99.0
10
209.0
20
98.0
10
208.0
20
98.0
10
207.0
20
99.0
10
207.0
20
100.0
10
207.0
20
101.0
10
206.0
20
102.0
10
206.0
20
103.0
10
206.0
20
104.0
10
205.0
20
105.0
10
205.0
20
106.0
10
205.0
20
107.0
10
204.0
20
108.0
10
204.0
20
109.0
10
204.0
20
110.0
10
204.0
20
111.0
10
203.0
20
112.0
10
203.0
20
113.0
10
203.0
20
114.0
10
202.0
20
115.0
10
202.0
20
116.0
10
202.0
20
117.0
10
201.0
20
118.0
10
201.0
20
119.0
10
201.0
20
120.0
10
201.0
20
121.0
10
200.0
20
122.0
10
200.0
20
123.0
10
200.0
20
124.0
10
199.0
20
125.0
10
199.0
20
126.0
10
199.0
20
127.0
10
198.0
20
128.0
10
198.0
20
129.0
10
198.0
20
130.0
10
198.0
20
131.0
10
197.0
20
132.0
10
197.0
20
133.0
10
197.0
20
134.0
10
196.0
20
135.0
10
196.0
20
136.0
10
196.0
20
137.0
10
195.0
20
138.0
10
195.0
20
139.0
10
195.0
20
140.0
10
195.0
20
141.0
10
194.0
20
142.0
10
194.0
20
143.0
10
194.0
20
144.0
10
193.0
20
145.0
10
193.0
20
146.0
10
193.0
20
147.0
10
192.0
20
148.0
10
192.0
20
149.0
10
192.0
20
150.0
10
192.0
20
151.0
10
191.0
20
152.0
10
191.0
20
153.0
10
191.0
20
154.0
10
190.0
20
155.0
10
190.0
20
156.0
10
190.0
20
157.0
10
189.0
20
158.0
10
189.0
20
159.0
10
189.0
20
160.0
10
189.0
20
161.0
10
188.0
20
162.0
10
188.0
20
163.0
10
188.0
20
164.0
10
187.0
20
165.0
10
187.0
20
166.0
10
187.0
20
167.0
10
186.0
20
168.0
10
186.0
20
169.0
10
186.0
20
170.0
10
185.0
20
171.0
10
185.0
20
172.0
10
185.0
20
173.0
10
185.0
20
174.0
10
184.0
20
175.0
10
184.0
20
176.0
10
184.0
20
177.0
10
183.0
20
178.0
10
183.0
20
179.0
10
183.0
20
180.0
10
182.0
20
181.0
10
182.0
20
182.0
10
182.0
20
183.0
10
181.0
20
184.0
10
181.0
20
185.0
10
181.0
20
186.0
10
181.0
20
187.0
10
180.0
20
188.0
10
180.0
20
189.0
10
180.0
20
190.0
10
179.0
20
191.0
10
179.0
20
192.0
10
179.0
20
193.0
10
178.0
20
194.0
10
178.0
20
195.0
10
178.0
20
196.0
10
178.0
20
197.0
10
177.0
20
198.0
10
177.0
20
199.0
10
177.0
20
200.0
10
176.0
20
201.0
10
176.0
20
202.0
10
176.0
20
203.0
10
175.0
20
204.0
10
175.0
20
205.0
10
175.0
20
206.0
10
175.0
20
207.0
10
174.0
20
208.0
10
174.0
20
209.0
10
174.0
20
210.0
10
173.0
20
211.0
10
173.0
20
212.0
10
173.0
20
213.0
10
172.0
20
214.0
10
172.0
20
215.0
10
172.0
20
216.0
10
172.0
20
217.0
10
171.0
20
218.0
10
171.0
20
219.0
10
171.0
20
220.0
10
170.0
20
221.0
10
170.0
20
222.0
10
170.0
20
223.0
10
169.0
20
224.0
10
169.0
20
225.0
10
169.0
20
226.0
10
169.0
20
227.0
10
168.0
20
228.0
10
168.0
20
229.0
10
168.0
20
230.0
10
167.0
20
231.0
10
167.0
20
232.0
10
167.0
20
233.0
10
166.0
20
234.0
10
166.0
20
235.0
10
166.0
20
236.0
10
166.0
20
237.0
10
165.0
20
238.0
10
165.0
20
239.0
10
165.0
20
240.0
10
164.0
20
241.0
10
164.0
20
242.0
10
164.0
20
243.0
10
163.0
20
244.0
10
163.0
20
245.0
10
163.0
20
246.0
10
163.0
20
247.0
10
162.0
20
248.0
10
162.0
20
249.0
10
162.0
20
250.0
10
161.0
20
251.0
10
161.0
20
252.0
10
161.0
20
253.0
10
160.0
20
254.0
10
160.0
20
255.0
10
160.0
20
256.0
10
160.0
20
257.0
10
159.0
20
258.0
10
159.0
20
259.0
10
159.0
20
260.0
10
158.0
20
261.0
10
158.0
20
262.0
10
158.0
20
263.0
10
157.0
20
264.0
10
157.0
20
265.0
10
157.0
20
266.0
10
157.0
20
267.0
10
156.0
20
268.0
10
156.0
20
269.0
10
156.0
20
270.0
10
155.0
20
271.0
10
155.0
20
272.0
10
155.0
20
273.0
10
155.0
20
274.0
10
154.0
20
275.0
10
154.0
20
276.0
10
154.0
20
277.0
10
153.0
20
278.0
10
153.0
20
279.0
10
153.0
20
280.0
10
153.0
20
281.0
10
152.0
20
282.0
10
152.0
20
283.0
10
152.0
20
284.0
10
151.0
20
285.0
10
151.0
20
286.0
10
151.0
20
287.0
10
150.0
20
288.0
10
150.0
20
289.0
10
150.0
20
290.0
10
150.0
20
291.0
10
149.0
20
292.0
10
149.0
20
293.0
10
149.0
20
294.0
10
148.0
20
295.0
10
148.0
20
296.0
10
148.0
20
297.0
10
147.0
20
298.0
10
147.0
20
299.0
10
147.0
20
300.0
10
147.0
20
301.0
10
146.0
20
302.0
10
146.0
20
303.0
10
146.0
20
304.0
10
145.0
20
305.0
10
145.0
20
306.0
10
145.0
20
307.0
10
145.0
20
308.0
10
144.0
20
309.0
10
144.0
20
310.0
10
144.0
20
311.0
10
143.0
20
312.0
10
143.0
20
313.0
10
143.0
20
314.0
10
142.0
20
315.0
10
142.0
20
316.0
10
142.0
20
317.0
10
142.0
20
318.0
10
141.0
20
319.0
10
141.0
20
320.0
10
141.0
20
321.0
10
140.0
20
322.0
10
140.0
20
323.0
10
140.0
20
324.0
10
139.0
20
325.0
10
139.0
20
326.0
10
139.0
20
327.0
10
139.0
20
328.0
10
138.0
20
329.0
10
138.0
20
330.0
10
138.0
20
331.0
10
137.0
20
332.0
10
137.0
20
333.0
10
137.0
20
334.0
10
136.0
20
335.0
10
136.0
20
336.0
10
136.0
20
337.0
10
136.0
20
338.0
10
135.0
20
339.0
10
135.0
20
340.0
10
135.0
20
341.0
10
134.0
20
342.0
10
134.0
20
343.0
10
134.0
20
344.0
10
133.0
20
345.0
10
133.0
20
346.0
10
133.0
20
347.0
10
133.0
20
348.0
10
132.0
20
349.0
10
132.0
20
350.0
10
132.0
20
351.0
10
131.0
20
352.0
10
131.0
20
353.0
10
131.0
20
354.0
10
130.0
20
355.0
10
130.0
20
356.0
10
130.0
20
357.0
10
129.0
20
358.0
10
129.0
20
359.0
10
129.0
20
360.0
10
129.0
20
361.0
10
128.0
20
362.0
10
128.0
20
363.0
10
128.0
20
364.0
10
127.0
20
365.0
10
127.0
20
366.0
10
127.0
20
367.0
10
126.0
20
368.0
10
126.0
20
369.0
10
126.0
20
370.0
10
125.0
20
371.0
10
125.0
20
372.0
10
125.0
20
373.0
10
125.0
20
374.0
10
124.0
20
375.0
10
124.0
20
376.0
10
124.0
20
377.0
10
123.0
20
378.0
10
123.0
20
379.0
10
123.0
20
380.0
10
122.0
20
381.0
10
122.0
20
382.0
10
122.0
20
383.0
10
122.0
20
384.0
10
121.0
20
385.0
10
121.0
20
386.0
10
121.0
20
387.0
10
120.0
20
388.0
10
120.0
20
389.0
10
120.0
20
390.0
10
119.0
20
391.0
10
119.0
20
392.0
10
119.0
20
393.0
10
119.0
20
394.0
10
118.0
20
395.0
10
118.0
20
396.0
10
118.0
20
397.0
10
117.0
20
398.0
10
117.0
20
399.0
10
117.0
20
400.0
10
116.0
20
401.0
10
116.0
20
402.0
10
116.0
20
403.0
10
116.0
20
404.0
10
115.0
20
405.0
10
115.0
20
406.0
10
115.0
20
407.0
10
114.0
20
408.0
10
114.0
20
409.0
10
114.0
20
410.0
10
113.0
20
411.0
10
113.0
20
412.0
10
113.0
20
413.0
10
113.0
20
414.0
10
112.0
20
415.0
10
112.0
20
416.0
10
112.0
20
417.0
10
111.0
20
418.0
10
111.0
20
419.0
10
111.0
20
420.0
10
110.0
20
421.0
10
110.0
20
422.0
10
110.0
20
423.0
10
109.0
20
424.0
10
109.0
20
425.0
10
109.0
20
426.0
10
109.0
20
427.0
10
108.0
20
428.0
10
108.0
20
429.0
10
108.0
20
430.0
10
107.0
20
431.0
10
107.0
20
432.0
10
107.0
20
433.0
10
106.0
20
434.0
10
106.0
20
435.0
10
106.0
20
436.0
10
106.0
20
437.0
10
105.0
20
438.0
10
105.0
20
439.0
10
105.0
20
440.0
10
104.0
20
441.0
10
104.0
20
442.0
10
104.0
20
443.0
10
103.0
20
444.0
10
103.0
20
445.0
10
102.0
20
445.0
10
101.0
20
445.0
10
100.0
20
445.0
10
99.0
20
445.0
10
98.0
20
445.0
10
97.0
20
445.0
10
96.0
20
445.0
10
95.0
20
445.0
10
94.0
20
445.0
10
93.0
20
445.0
10
92.0
20
445.0
10
91.0
20
445.0
10
90.0
20
445.0
10
89.0
20
445.0
10
88.0
20
445.0
10
87.0
20
445.0
10
86.0
20
445.0
10
85.0
20
445.0
10
84.0
20
445.0
10
83.0
20
445.0
10
82.0
20
445.0
10
81.0
20
445.0
10
80.0
20
445.0
10
79.0
20
445.0
10
78.0
20
445.0
10
77.0
20
445.0
10
76.0
20
445.0
10
75.0
20
445.0
10
74.0
20
445.0
10
73.0
20
445.0
10
72.0
20
445.0
10
71.0
20
445.0
10
70.0
20
445.0
10
69.0
20
445.0
10
68.0
20
445.0
10
67.0
20
445.0
10
66.0
20
445.0
10
65.0
20
445.0
10
64.0
20
445.0
10
63.0
20
445.0
10
62.0
20
445.0
10
61.0
20
445.0
10
60.0
20
445.0
10
59.0
20
445.0
10
58.0
20
445.0
10
57.0
20
445.0
10
56.0
20
445.0
10
55.0
20
445.0
10
54.0
20
445.0
10
53.0
20
445.0
10
52.0
20
445.0
10
51.0
20
445.0
10
50.0
20
445.0
10
49.0
20
445.0
10
48.0
20
445.0
10
47.0
20
445.0
10
46.0
20
445.0
10
45.0
20
445.0
10
44.0
20
445.0
10
43.0
20
445.0
10
42.0
20
445.0
10
41.0
20
445.0
10
40.0
20
445.0
10
39.0
20
445.0
10
38.0
20
445.0
10
37.0
20
445.0
10
36.0
20
445.0
10
35.0
20
445.0
10
34.0
20
445.0
10
33.0
20
445.0
10
32.0
20
445.0
10
31.0
20
445.0
10
30.0
20
445.0
10
29.0
20
445.0
10
28.0
20
445.0
10
27.0
20
445.0
10
26.0
20
445.0
10
25.0
20
445.0
10
24.0
20
445.0
10
23.0
20
445.0
10
22.0
20
445.0
10
21.0
20
445.0
10
20.0
20
445.0
10
19.0
20
445.0
10
18.0
20
445.0
0
ENDSEC
0
EOF